<svg xmlns="http://www.w3.org/2000/svg" viewBox="0 0 512 512">
  <path fill="#ff9900"
     d="M 0,142 V 91 c 0,0 15,-42 30,-57 C 47,17 95,0 95,0 h 319 c 0,0 45,14 61,30 C 493,46 512,94 512,94 V 142 Z" />
  <path fill="#e62e04"
     d="M 0,148 C 0,148 11,111 24,96 36,82 70,64 70,64 h 372 c 0,0 28,20 40,32 16,16 30,54 30,54 V 406 c 0,0 -12,50 -31,70 -18,19 -72,36 -72,36 H 103 C 103,512 53,493 35,476 15,456 0,406 0,406 Z"/>
  <circle stroke="#ffffff" stroke-width="44" fill="none" cx="256" cy="216" r="140"/>
  <line x1="40" y1="140" x2="480" y2="140" stroke="#e62e04" stroke-width="160" />
</svg>
