<svg xmlns="http://www.w3.org/2000/svg" viewBox="0 0 512 512">
  <path
    d="m 271,145 c -12,0 -40,0 -86,7 -62,12 -91,69 -91,115 0,43 43,96 109,96 50,0 78,-29 89,-43 1,-3 6,-1 7,0 1,3 6,9 11,13 4,6 11,12 17,17 4,3 12,3 17,0 l 42,-40 c 4,-4 4,-12 1,-17 -1,-3 -4,-6 -7,-11 -11,-15 -11,-29 -11,-29 v -151 c 0,-17 -11,-92 -129,-92 -96,0 -125,66 -133,91 0,4 1,9 6,9 l 59,9 c 3,0 6,0 7,-3 6,-12 25,-44 55,-44 37,0 37,29 37,29 v 34 c 4,6 1,9 -3,9 z m 9,55 v 43 c 0,23 -15,42 -37,46 -4,0 -12,1 -20,1 -48,0 -39,-60 -17,-79 17,-13 51,-18 67,-20 3,0 7,3 7,7 z" fill="#000000" />
  <path
    d="m 421,386 c 23,-1 34,-4 40,0 6,6 4,18 0,34 -4,13 -15,26 -4,32 12,6 64,-57 42,-89 -17,-26 -91,3 -97,6 -4,3 -4,7 -4,7 0,0 0,12 23,9 z" fill="#ef8328"/>
  <path
    d="m 237,491 c 89,0 127,-17 165,-38 37,-20 45,-37 39,-46 -4,-9 -26,0 -45,7 -18,7 -78,29 -165,29 -86,0 -172,-58 -191,-72 -17,-12 -25,0 -25,0 0,0 -4,9 11,30 15,22 102,90 211,90 z" fill="#ef8328" />
</svg>
