<?xml version="1.0" encoding="UTF-8" standalone="no"?>
<svg
   xmlns:dc="http://purl.org/dc/elements/1.1/"
   xmlns:cc="http://creativecommons.org/ns#"
   xmlns:rdf="http://www.w3.org/1999/02/22-rdf-syntax-ns#"
   xmlns:svg="http://www.w3.org/2000/svg"
   xmlns="http://www.w3.org/2000/svg"
   xmlns:sodipodi="http://sodipodi.sourceforge.net/DTD/sodipodi-0.dtd"
   xmlns:inkscape="http://www.inkscape.org/namespaces/inkscape"
   version="1.1"
   x="0px"
   y="0px"
   width="512"
   height="512px"
   viewBox="0 0 512 512"
   id="svg878"
   sodipodi:docname="article.svg"
   inkscape:version="0.92.2 5c3e80d, 2017-08-06">
  <metadata
     id="metadata884">
    <rdf:RDF>
      <cc:Work
         rdf:about="">
        <dc:format>image/svg+xml</dc:format>
        <dc:type
           rdf:resource="http://purl.org/dc/dcmitype/StillImage" />
      </cc:Work>
    </rdf:RDF>
  </metadata>
  <defs
     id="defs882" />
  <sodipodi:namedview
     pagecolor="#ffffff"
     bordercolor="#666666"
     borderopacity="1"
     objecttolerance="10"
     gridtolerance="10"
     guidetolerance="10"
     inkscape:pageopacity="0"
     inkscape:pageshadow="2"
     inkscape:window-width="1680"
     inkscape:window-height="1023"
     id="namedview880"
     showgrid="false"
     inkscape:zoom="1.1504296"
     inkscape:cx="129.33916"
     inkscape:cy="253.07216"
     inkscape:window-x="0"
     inkscape:window-y="27"
     inkscape:window-maximized="1"
     inkscape:current-layer="svg878" />
  <path
     d="m 430.52301,19.123291 h -267.44 c -19.038,0 -34.531,15.498 -34.531,34.531 v 22.053 H 97.117013 c -19.038,0 -34.53,15.498 -34.53,34.530999 v 358.533 c 0,19.033 15.492,34.531 34.53,34.531 H 364.56601 c 19.039,0 34.531,-15.498 34.531,-34.531 v -22.053 h 31.426 c 19.041,0 34.531,-15.498 34.531,-34.53 V 53.654291 c 0,-19.033 -15.49,-34.531 -34.531,-34.531 z m -59.049,449.647999 c 0,3.804 -3.105,6.907 -6.908,6.907 H 97.117013 c -3.802,0 -6.907,-3.104 -6.907,-6.907 v -358.533 c 0,-3.807 3.105,-6.907 6.907,-6.907 h 31.434997 v 308.856 c 0,19.032 15.493,34.53 34.531,34.53 h 208.391 v 22.054 z m 65.957,-56.583 c 0,3.803 -3.098,6.907 -6.908,6.907 h -267.44 c -3.811,0 -6.906,-3.104 -6.906,-6.907 V 53.654291 c 0,-3.806 3.096,-6.907 6.906,-6.907 h 267.439 c 3.811,0 6.908,3.102 6.908,6.907 V 412.18829 Z"
     id="path868"
     inkscape:connector-curvature="0" />
  <path
     d="m 398.09101,104.90929 h -202.575 c -7.628,0 -13.813,6.19 -13.813,13.811 0,7.636 6.186,13.813 13.813,13.813 h 202.573 c 7.629,0 13.812,-6.178 13.812,-13.813 0.002,-7.62 -6.183,-13.811 -13.81,-13.811 z"
     id="path870"
     inkscape:connector-curvature="0" />
  <path
     d="m 398.09101,170.65229 h -202.575 c -7.628,0 -13.813,6.188 -13.813,13.811 0,7.634 6.186,13.813 13.813,13.813 h 202.573 c 7.629,0 13.812,-6.18 13.812,-13.813 0.002,-7.622 -6.183,-13.811 -13.81,-13.811 z"
     id="path872"
     inkscape:connector-curvature="0" />
  <path
     d="m 398.09101,236.39329 h -202.575 c -7.628,0 -13.813,6.191 -13.813,13.814 0,7.633 6.186,13.811 13.813,13.811 h 202.573 c 7.629,0 13.812,-6.178 13.812,-13.811 0.002,-7.623 -6.183,-13.814 -13.81,-13.814 z"
     id="path874"
     inkscape:connector-curvature="0" />
  <path
     d="m 398.09101,302.13729 h -202.575 c -7.628,0 -13.813,6.191 -13.813,13.811 0,7.638 6.186,13.813 13.813,13.813 h 202.573 c 7.629,0 13.812,-6.177 13.812,-13.813 0.002,-7.62 -6.183,-13.811 -13.81,-13.811 z"
     id="path876"
     inkscape:connector-curvature="0" />
</svg>
