<?xml version="1.0" encoding="UTF-8" standalone="no"?>
<!-- Generator: Adobe Illustrator 16.0.0, SVG Export Plug-In . SVG Version: 6.00 Build 0)  -->

<svg
   xmlns:dc="http://purl.org/dc/elements/1.1/"
   xmlns:cc="http://creativecommons.org/ns#"
   xmlns:rdf="http://www.w3.org/1999/02/22-rdf-syntax-ns#"
   xmlns:svg="http://www.w3.org/2000/svg"
   xmlns="http://www.w3.org/2000/svg"
   xmlns:sodipodi="http://sodipodi.sourceforge.net/DTD/sodipodi-0.dtd"
   xmlns:inkscape="http://www.inkscape.org/namespaces/inkscape"
   version="1.1"
   id="Capa_1"
   x="0px"
   y="0px"
   width="512"
   height="512"
   viewBox="0 0 512 512"
   xml:space="preserve"
   sodipodi:docname="attention.svg"
   inkscape:version="0.92.2 5c3e80d, 2017-08-06"><metadata
     id="metadata44"><rdf:RDF><cc:Work
         rdf:about=""><dc:format>image/svg+xml</dc:format><dc:type
           rdf:resource="http://purl.org/dc/dcmitype/StillImage" /><dc:title></dc:title></cc:Work></rdf:RDF></metadata><defs
     id="defs42" /><sodipodi:namedview
     pagecolor="#ffffff"
     bordercolor="#666666"
     borderopacity="1"
     objecttolerance="10"
     gridtolerance="10"
     guidetolerance="10"
     inkscape:pageopacity="0"
     inkscape:pageshadow="2"
     inkscape:window-width="1680"
     inkscape:window-height="1023"
     id="namedview40"
     showgrid="false"
     inkscape:zoom="1.0907007"
     inkscape:cx="443.40284"
     inkscape:cy="193.20338"
     inkscape:window-x="0"
     inkscape:window-y="27"
     inkscape:window-maximized="1"
     inkscape:current-layer="Capa_1" /><g
     id="g7"
     transform="matrix(0.72033899,0,0,0.73781779,36.305085,23.01589)"><g
       id="Attention"><g
         id="g4"><path
           d="m 605.217,501.568 -255,-442 C 341.394,44.302 324.887,34 306,34 287.113,34 270.606,44.302 261.783,59.568 l -255,442 C 2.482,509.048 0,517.735 0,527 c 0,28.152 22.848,51 51,51 h 510 c 28.152,0 51,-22.848 51,-51 0,-9.265 -2.465,-17.952 -6.783,-25.432 z M 50.966,527.051 305.949,85 H 306 l 0.034,0.051 L 561,527 Z M 306,408 c -18.768,0 -34,15.232 -34,34 0,18.785 15.215,34 34,34 18.785,0 34,-15.232 34,-34 0,-18.768 -15.215,-34 -34,-34 z M 272,255 c 0,1.938 0.17,3.859 0.476,5.712 l 16.745,99.145 c 1.377,8.04 8.364,14.143 16.779,14.143 8.415,0 15.402,-6.103 16.762,-14.144 l 16.745,-99.145 C 339.83,258.859 340,256.938 340,255 c 0,-18.768 -15.215,-34 -34,-34 -18.768,0 -34,15.232 -34,34 z"
           id="path2"
           inkscape:connector-curvature="0" /></g></g></g><g
     id="g9"
     transform="translate(0,-100)" /><g
     id="g11"
     transform="translate(0,-100)" /><g
     id="g13"
     transform="translate(0,-100)" /><g
     id="g15"
     transform="translate(0,-100)" /><g
     id="g17"
     transform="translate(0,-100)" /><g
     id="g19"
     transform="translate(0,-100)" /><g
     id="g21"
     transform="translate(0,-100)" /><g
     id="g23"
     transform="translate(0,-100)" /><g
     id="g25"
     transform="translate(0,-100)" /><g
     id="g27"
     transform="translate(0,-100)" /><g
     id="g29"
     transform="translate(0,-100)" /><g
     id="g31"
     transform="translate(0,-100)" /><g
     id="g33"
     transform="translate(0,-100)" /><g
     id="g35"
     transform="translate(0,-100)" /><g
     id="g37"
     transform="translate(0,-100)" /></svg>