<?xml version="1.0" encoding="UTF-8" standalone="no"?>
<svg
   xmlns:dc="http://purl.org/dc/elements/1.1/"
   xmlns:cc="http://creativecommons.org/ns#"
   xmlns:rdf="http://www.w3.org/1999/02/22-rdf-syntax-ns#"
   xmlns:svg="http://www.w3.org/2000/svg"
   xmlns="http://www.w3.org/2000/svg"
   xmlns:sodipodi="http://sodipodi.sourceforge.net/DTD/sodipodi-0.dtd"
   xmlns:inkscape="http://www.inkscape.org/namespaces/inkscape"
   version="1.1"
   id="Capa_1"
   x="0px"
   y="0px"
   viewBox="0 0 512 512"
   xml:space="preserve"
   sodipodi:docname="buy.svg"
   width="512"
   height="512"
   inkscape:version="0.92.2 5c3e80d, 2017-08-06"><metadata
     id="metadata866"><rdf:RDF><cc:Work
         rdf:about=""><dc:format>image/svg+xml</dc:format><dc:type
           rdf:resource="http://purl.org/dc/dcmitype/StillImage" /><dc:title></dc:title></cc:Work></rdf:RDF></metadata><defs
     id="defs864" /><sodipodi:namedview
     pagecolor="#ffffff"
     bordercolor="#666666"
     borderopacity="1"
     objecttolerance="10"
     gridtolerance="10"
     guidetolerance="10"
     inkscape:pageopacity="0"
     inkscape:pageshadow="2"
     inkscape:window-width="1680"
     inkscape:window-height="1023"
     id="namedview862"
     showgrid="false"
     inkscape:zoom="1.1785113"
     inkscape:cx="201.87742"
     inkscape:cy="225.4876"
     inkscape:window-x="0"
     inkscape:window-y="27"
     inkscape:window-maximized="1"
     inkscape:current-layer="Capa_1" /><path
     d="m 461.3132,438.06325 -28,-315.3 c -0.6,-7 -6.5,-12.3 -13.4,-12.3 h -57.6 c -0.8,-52.600003 -43.8,-95.100003 -96.6,-95.100003 -52.8,0 -95.8,42.5 -96.6,95.100003 h -57.6 c -7,0 -12.799997,5.3 -13.399997,12.3 l -28,315.3 c 0,0.4 -0.1,0.8 -0.1,1.2 0,35.9 32.899997,65.1 73.399997,65.1 h 244.6 c 40.5,0 73.4,-29.2 73.4,-65.1 0,-0.4 0,-0.8 -0.1,-1.2 z m -195.6,-395.700003 c 37.9,0 68.8,30.4 69.6,68.100003 h -139.2 c 0.8,-37.700003 31.7,-68.100003 69.6,-68.100003 z m 122.3,435.000003 h -244.6 c -25.4,0 -45.999997,-16.8 -46.399997,-37.5 l 26.799997,-302.3 h 45.2 v 41 c 0,7.5 6,13.5 13.5,13.5 7.5,0 13.5,-6 13.5,-13.5 v -41 h 139.3 v 41 c 0,7.5 6,13.5 13.5,13.5 7.5,0 13.5,-6 13.5,-13.5 v -41 h 45.2 l 26.9,302.3 c -0.4,20.7 -21.1,37.5 -46.4,37.5 z"
     id="path859"
     inkscape:connector-curvature="0" /></svg>