<?xml version="1.0" encoding="UTF-8" standalone="no"?>
<!-- Created with Inkscape (http://www.inkscape.org/) -->

<svg
   xmlns:dc="http://purl.org/dc/elements/1.1/"
   xmlns:cc="http://creativecommons.org/ns#"
   xmlns:rdf="http://www.w3.org/1999/02/22-rdf-syntax-ns#"
   xmlns:svg="http://www.w3.org/2000/svg"
   xmlns="http://www.w3.org/2000/svg"
   xmlns:sodipodi="http://sodipodi.sourceforge.net/DTD/sodipodi-0.dtd"
   xmlns:inkscape="http://www.inkscape.org/namespaces/inkscape"
   width="512"
   height="512"
   viewBox="0 0 135.46666 135.46667"
   version="1.1"
   id="svg8"
   inkscape:version="0.92.2 5c3e80d, 2017-08-06"
   sodipodi:docname="dailymotion.svg">
  <defs
     id="defs2" />
  <sodipodi:namedview
     id="base"
     pagecolor="#ffffff"
     bordercolor="#666666"
     borderopacity="1.0"
     inkscape:pageopacity="0.0"
     inkscape:pageshadow="2"
     inkscape:zoom="0.7"
     inkscape:cx="412.73572"
     inkscape:cy="216.2147"
     inkscape:document-units="mm"
     inkscape:current-layer="layer1"
     showgrid="false"
     units="px"
     inkscape:window-width="1680"
     inkscape:window-height="1023"
     inkscape:window-x="0"
     inkscape:window-y="27"
     inkscape:window-maximized="1" />
  <metadata
     id="metadata5">
    <rdf:RDF>
      <cc:Work
         rdf:about="">
        <dc:format>image/svg+xml</dc:format>
        <dc:type
           rdf:resource="http://purl.org/dc/dcmitype/StillImage" />
        <dc:title></dc:title>
      </cc:Work>
    </rdf:RDF>
  </metadata>
  <g
     inkscape:label="Layer 1"
     inkscape:groupmode="layer"
     id="layer1"
     transform="translate(0,-161.53332)">
    <rect
       style="opacity:1;fill:#0064dc;fill-opacity:1;fill-rule:nonzero;stroke:none;stroke-width:0.26499999;stroke-miterlimit:4;stroke-dasharray:none;stroke-opacity:1"
       id="rect836"
       width="137.20535"
       height="137.20535"
       x="0"
       y="161.68451" />
    <path
       style="fill:#fffffe;fill-opacity:1;stroke:none;stroke-width:0.26499999;stroke-linecap:butt;stroke-linejoin:miter;stroke-miterlimit:4;stroke-dasharray:none;stroke-opacity:1"
       d="m 97.517856,182.09522 21.544644,-4.53571 v 104.6994 H 97.895832 v -8.31547 c 0,0 -5.579383,5.35712 -9.071427,6.80357 -4.115414,1.70466 -8.77639,2.01347 -13.229167,1.88988 -5.137509,-0.1426 -10.464782,-0.84387 -15.119048,-3.02381 -4.543872,-2.12824 -8.439298,-5.65057 -11.717263,-9.4494 -3.246815,-3.76273 -5.939012,-8.1529 -7.559522,-12.85119 -1.865031,-5.40722 -2.684314,-11.30429 -2.267857,-17.00893 0.400701,-5.48881 1.936276,-11.02417 4.535712,-15.875 2.110719,-3.93883 8.693454,-10.20536 8.693454,-10.20536 0,0 8.893886,-6.08967 13.985118,-7.55952 5.459269,-1.5761 11.488023,-2.4783 17.008928,-1.13393 5.437489,1.32405 14.363096,8.69345 14.363096,8.69345 z"
       id="path826"
       inkscape:connector-curvature="0"
       sodipodi:nodetypes="cccccssssssscsscc" />
    <circle
       id="circle834"
       cx="80"
       cy="245"
       r="20"
       style="fill:#0064dc;fill-opacity:1" />
  </g>
</svg>
