<svg xmlns="http://www.w3.org/2000/svg" viewBox="0 0 512 512">
  <path
     style="fill:#509f06;stroke:#257d17;stroke-width:8"
     d="m 134,393 c 15,26 -11,63 0,91 3,7 9,12 16,15 34,14 112,0 112,0 0,0 -16,-32 -19,-50 -1,-8 -2,-18 0,-26 4,-12 12,-25 24,-31 17,-8 38,-5 57,0 11,3 24,9 31,20 5,8 4,29 4,29 l -20,60 139,-0 c 0,0 15,-12 18,-21 14,-39 0,-126 0,-126 0,0 -27,19 -43,22 -8,1 -18,1 -27,-2 -12,-6 -22,-19 -27,-33 -6,-17 -6,-38 0,-56 3,-11 11,-22 22,-27 9,-4 20,-1 31,0 15,2 44,17 44,17 0,0 16,-81 1,-116 -4,-10 -14,-19 -25,-23 -34,-13 -83,27 -109,0 -3,-4 -1,-11 0,-17 4,-13 20,-20 24,-33 3,-10 3,-22 0,-33 -2,-9 -8,-18 -16,-24 C 365,16 352,11 340,8 c -24,-5 -51,-6 -75,0 -13,3 -26,11 -36,21 -5,5 -9,11 -11,18 -3,12 -4,26 0,37 4,12 24,15 27,29 1,6 -1,13 -6,17 -24,17 -61,-11 -88,0 -8,3 -15,11 -18,19 -10,27 13,63 0,89 -2,4 -6,8 -11,7 -11,-0 -25,-22 -25,-22 l -20,-5 c 0,0 -21,-1 -30,3 -8,4 -13,12 -18,19 -6,9 -11,19 -13,29 -5,24 -4,50 0,75 2,12 4,24 12,34 7,9 17,15 28,18 8,2 18,1 27,-0 8,-2 16,-8 24,-11 5,-2 11,-5 18,-4 5,0 11,3 13,7 z"/>
</svg>
