<svg xmlns="http://www.w3.org/2000/svg" viewBox="0 0 512 512">
  <circle cx="256" cy="256" r="256" fill="#e15733" id="circle4503" />
  <circle cx="256" cy="256" r="230" stroke="#ffffff" stroke-width="16" fill="none" id="circle4505" />
  <path d="M 198,483 140,207 c 0,0 -2,-30 1,-45 2,-8 6,-15 12,-22 6,-7 15,-13 24,-16 9,-3 29,-5 29,-5 l -64,-6 22,-17 -20,-6 33,-4 c 0,0 29,1 42,6 14,6 23,21 36,28 1,0 2,1 4,1 9,3 17,2 24,7 13,8 21,23 29,37 8,14 13,31 16,48 2,12 0,36 0,36 l -73,59 C 255,308 251,338 253,352 c 4,20 10,41 18,60 8,20 32,74 32,74 z" fill="#ffffff"/>
  <path fill="#60c14f" d="m 207,462 -5,-72 51,19 39,-3 44,-24 4,73 -48,-14 -46,6 z" />
  <path d="m 427,251 c 0,0 -80,35 -97,35 -18,0 -26,-11 -38,-5 -4,2 -7,9 -7,14 0,5 4,10 8,13 11,8 28,8 42,8 20,0 39,-13 60,-13 3,0 9,0 11,3 1,2 1,6 -1,9 -11,16 -36,21 -56,23 -29,2 -63.72,-1 -87,-19 -10,-7 -18,-26 -15,-39 C 250,268 263,262 275,256 c 15,-7 34,-1 51,-5 25,-5 48,-22 75,-23 10,0 25,0 29,8 2,4 0,0 0,0" fill="#fdd008" />
  <circle cx="299" cy="209" r="10" fill="#294e94"/>
  <circle cx="194" cy="222" r="10" fill="#294e94"/>
  <path fill="#585a93" d="m 162,189 c 0,0 5,-12 10,-15 7,-4 24,-3 24,-3 0,0 -19,-5 -26,-0 -6,4 -8,19 -8,19 z" />
  <path fill="#585a93" d="m 279,171 c 0,0 9,-4 14,-4 5,-0 15,4 15,4 0,0 -10,-9 -16,-9 -5,0 -13,9 -13,9 z"/>
  <path d="m 182,466 14,6 L 142,196 145,150 132,175 l -3,27 z" fill="#ced4db" />
 </svg>