<?xml version="1.0" encoding="iso-8859-1"?>
<!-- Generator: Adobe Illustrator 16.0.0, SVG Export Plug-In . SVG Version: 6.00 Build 0)  -->
<!DOCTYPE svg PUBLIC "-//W3C//DTD SVG 1.1//EN" "http://www.w3.org/Graphics/SVG/1.1/DTD/svg11.dtd">
<svg version="1.1" id="Capa_1" xmlns="http://www.w3.org/2000/svg" xmlns:xlink="http://www.w3.org/1999/xlink" x="0px" y="0px"
	 width="59.167px" height="59.167px" viewBox="0 0 59.167 59.167" style="enable-background:new 0 0 59.167 59.167;"
	 xml:space="preserve">
<g>
	<g>
		<g>
			<path d="M46.663,59.167H2.497c-1.291,0-2.337-1.046-2.337-2.337V12.665c0-1.291,1.046-2.337,2.337-2.337h44.166
				c1.291,0,2.337,1.047,2.337,2.337V56.83C49,58.12,47.954,59.167,46.663,59.167z M4.834,54.492h39.491v-39.49H4.834V54.492z"/>
		</g>
		<g>
			<path d="M56.67,48.84h-4.745c-1.291,0-2.337-1.047-2.337-2.337c0-1.291,1.046-2.337,2.337-2.337h2.408V4.675H14.841v2.6
				c0,1.291-1.046,2.337-2.337,2.337s-2.337-1.047-2.337-2.337V2.337c0-1.29,1.046-2.337,2.337-2.337H56.67
				c1.291,0,2.337,1.047,2.337,2.337v44.166C59.007,47.793,57.961,48.84,56.67,48.84z"/>
		</g>
	</g>
</g>
<g>
</g>
<g>
</g>
<g>
</g>
<g>
</g>
<g>
</g>
<g>
</g>
<g>
</g>
<g>
</g>
<g>
</g>
<g>
</g>
<g>
</g>
<g>
</g>
<g>
</g>
<g>
</g>
<g>
</g>
</svg>