<?xml version="1.0" encoding="UTF-8" standalone="no"?>
<svg
   xmlns:dc="http://purl.org/dc/elements/1.1/"
   xmlns:cc="http://creativecommons.org/ns#"
   xmlns:rdf="http://www.w3.org/1999/02/22-rdf-syntax-ns#"
   xmlns:svg="http://www.w3.org/2000/svg"
   xmlns="http://www.w3.org/2000/svg"
   xmlns:sodipodi="http://sodipodi.sourceforge.net/DTD/sodipodi-0.dtd"
   xmlns:inkscape="http://www.inkscape.org/namespaces/inkscape"
   x="0"
   y="0"
   viewBox="0 0 512 512"
   version="1.1"
   id="svg949"
   sodipodi:docname="options.svg"
   width="512"
   height="512"
   inkscape:version="0.92.2 5c3e80d, 2017-08-06">
  <metadata
     id="metadata955">
    <rdf:RDF>
      <cc:Work
         rdf:about="">
        <dc:format>image/svg+xml</dc:format>
        <dc:type
           rdf:resource="http://purl.org/dc/dcmitype/StillImage" />
        <dc:title></dc:title>
      </cc:Work>
    </rdf:RDF>
  </metadata>
  <defs
     id="defs953" />
  <sodipodi:namedview
     pagecolor="#ffffff"
     bordercolor="#666666"
     borderopacity="1"
     objecttolerance="10"
     gridtolerance="10"
     guidetolerance="10"
     inkscape:pageopacity="0"
     inkscape:pageshadow="2"
     inkscape:window-width="1680"
     inkscape:window-height="1023"
     id="namedview951"
     showgrid="false"
     inkscape:zoom="2.4907045"
     inkscape:cx="232.04014"
     inkscape:cy="84.295593"
     inkscape:window-x="0"
     inkscape:window-y="27"
     inkscape:window-maximized="1"
     inkscape:current-layer="svg949" />
  <path
     d="m 503.17958,230.22063 c 0,-5.63501 -7.53021,-11.27001 -15.06042,-11.27001 -22.59061,0 -43.29867,-13.14834 -50.82886,-33.81005 -7.53021,-20.66169 -1.88257,-45.08005 13.17785,-61.98507 3.76511,-3.75668 5.64764,-13.14835 0,-18.78335 -11.29532,-15.026692 -24.47317,-28.175041 -39.53357,-39.445055 -5.64765,-3.756672 -13.17787,-3.756672 -18.8255,0 -15.06042,15.026684 -41.41614,22.540026 -62.12419,13.148349 -20.70806,-7.513342 -33.88592,-30.05337 -33.88592,-54.471734 0,-5.635007 -3.7651,-13.148348 -11.2953,-13.148348 -18.82551,-1.8783358 -37.65102,-1.8783358 -56.47653,0 -5.64764,0 -11.2953,5.635007 -11.2953,13.148348 0,22.540029 -11.2953,43.20172 -33.88591,52.593399 -18.82552,7.513342 -47.06378,1.878335 -62.12418,-13.148349 -3.76511,-3.756673 -13.17785,-5.635007 -18.82551,0 -15.060411,11.270012 -28.238267,24.418361 -39.533573,39.44505 -3.765101,5.635 -3.765101,13.14836 0,18.78336 16.942958,15.02667 22.59061,39.44505 13.177856,61.98507 -7.530203,20.66169 -30.120813,33.81004 -54.593975,33.81004 -7.530203,0 -13.1778552,3.75667 -13.1778552,11.27 -1.8825508,18.78338 -1.8825508,37.56672 0,56.35007 0,5.63501 7.5302032,11.27002 15.0604062,11.27002 20.708059,0 41.416119,11.27002 50.828874,33.81004 7.530203,20.6617 1.88255,45.08005 -13.177856,61.98507 -3.765102,3.75669 -5.647653,13.14837 0,18.78337 11.295305,13.14835 24.47316,28.17503 39.533563,39.44503 5.64765,3.75669 13.17786,3.75669 18.8255,0 15.06043,-15.02667 41.41615,-22.54002 62.12419,-13.14834 20.70806,7.51334 33.88592,30.05336 33.88592,54.47174 0,5.63501 3.76511,13.14835 11.2953,13.14835 h 28.23827 26.35571 c 5.64765,0 11.2953,-5.63501 11.2953,-13.14835 0,-22.54002 11.29532,-43.20172 33.88592,-52.5934 20.70805,-7.51334 47.06376,-1.87834 62.12418,13.14835 3.76511,3.75667 13.17786,5.63501 18.8255,0 15.0604,-11.27001 28.23826,-24.41837 39.53358,-39.44504 3.7651,-5.63501 3.7651,-13.14835 0,-18.78336 -16.94296,-15.02669 -22.59061,-39.44504 -13.17787,-61.98507 7.53022,-18.78337 28.23827,-33.81004 50.82887,-33.81004 h 1.88257 c 5.64764,0 13.17785,-3.75668 13.17785,-11.27002 7.53019,-18.78337 7.53019,-37.56671 3.76511,-56.35007 z M 252.8003,399.27084 c -73.41948,-3.75667 -139.30876,-73.25509 -139.30876,-138.99685 0,-73.25509 67.77183,-140.87517 141.19132,-140.87517 75.30203,0 139.30876,69.49844 139.30876,138.99684 0,69.49842 -71.53695,140.87518 -141.19132,140.87518 z"
     id="path947"
     inkscape:connector-curvature="0"
     style="fill:#444444;stroke-width:1.88044214"
     sodipodi:nodetypes="csccccccsccsccccccsccsccccccsscsscsccccsscccssscc" />
</svg>
