<?xml version="1.0" encoding="UTF-8" standalone="no"?>
<svg
   xmlns:dc="http://purl.org/dc/elements/1.1/"
   xmlns:cc="http://creativecommons.org/ns#"
   xmlns:rdf="http://www.w3.org/1999/02/22-rdf-syntax-ns#"
   xmlns:svg="http://www.w3.org/2000/svg"
   xmlns="http://www.w3.org/2000/svg"
   xmlns:sodipodi="http://sodipodi.sourceforge.net/DTD/sodipodi-0.dtd"
   xmlns:inkscape="http://www.inkscape.org/namespaces/inkscape"
   viewBox="0 0 512 512"
   width="512"
   height="512"
   version="1.1"
   id="svg4"
   sodipodi:docname="fav.svg"
   inkscape:version="0.92.2 5c3e80d, 2017-08-06">
  <metadata
     id="metadata10">
    <rdf:RDF>
      <cc:Work
         rdf:about="">
        <dc:format>image/svg+xml</dc:format>
        <dc:type
           rdf:resource="http://purl.org/dc/dcmitype/StillImage" />
      </cc:Work>
    </rdf:RDF>
  </metadata>
  <defs
     id="defs8" />
  <sodipodi:namedview
     pagecolor="#ffffff"
     bordercolor="#666666"
     borderopacity="1"
     objecttolerance="10"
     gridtolerance="10"
     guidetolerance="10"
     inkscape:pageopacity="0"
     inkscape:pageshadow="2"
     inkscape:window-width="1680"
     inkscape:window-height="1023"
     id="namedview6"
     showgrid="false"
     inkscape:zoom="1.3037281"
     inkscape:cx="189.07871"
     inkscape:cy="274.1052"
     inkscape:window-x="0"
     inkscape:window-y="27"
     inkscape:window-maximized="1"
     inkscape:current-layer="svg4" />
  <path
     d="m 491,232 c 9,-9 13,-24 8,-37 -4,-13 -14,-22 -28,-24 L 353,152 c -5,0 -9,-4 -11,-8 L 289,31 c -5,-12 -17,-20 -31,-20 -13,0 -25,7 -31,20 l -54,112 c -2,4 -6,8 -11,9 L 43,170 c -13,2 -24,11 -28,24 -4,13 0,27 8,38 l 85,87 c 3,3 5,9 4,14 L 94,457 c -2,13 3,27 13,35 10,8 24,9 36,2 l 107,-56 c 4,-2 9,-2 14,0 l 105,58 c 5,2 10,4 16,4 7,0 14,-2 20,-7 10,-8 16,-22 13,-35 L 401,334 c 0,-5 0,-10 4,-14 z"
     id="path2"
     style="fill:#000000;fill-opacity:1;stroke:none"
     inkscape:connector-curvature="0"
     sodipodi:nodetypes="ccccccsccccsccccsccccsccccc" />
</svg>
