<?xml version="1.0" encoding="UTF-8" standalone="no"?>
<svg
   xmlns:dc="http://purl.org/dc/elements/1.1/"
   xmlns:cc="http://creativecommons.org/ns#"
   xmlns:rdf="http://www.w3.org/1999/02/22-rdf-syntax-ns#"
   xmlns:svg="http://www.w3.org/2000/svg"
   xmlns="http://www.w3.org/2000/svg"
   xmlns:sodipodi="http://sodipodi.sourceforge.net/DTD/sodipodi-0.dtd"
   xmlns:inkscape="http://www.inkscape.org/namespaces/inkscape"
   version="1.1"
   x="0px"
   y="0px"
   viewBox="0 0 512 512"
   id="svg866"
   sodipodi:docname="newFolder.svg"
   width="512"
   height="512"
   inkscape:version="0.92.2 5c3e80d, 2017-08-06">
  <metadata
     id="metadata872">
    <rdf:RDF>
      <cc:Work
         rdf:about="">
        <dc:format>image/svg+xml</dc:format>
        <dc:type
           rdf:resource="http://purl.org/dc/dcmitype/StillImage" />
        <dc:title></dc:title>
      </cc:Work>
    </rdf:RDF>
  </metadata>
  <defs
     id="defs870" />
  <sodipodi:namedview
     pagecolor="#ffffff"
     bordercolor="#666666"
     borderopacity="1"
     objecttolerance="10"
     gridtolerance="10"
     guidetolerance="10"
     inkscape:pageopacity="0"
     inkscape:pageshadow="2"
     inkscape:window-width="1680"
     inkscape:window-height="1023"
     id="namedview868"
     showgrid="false"
     inkscape:zoom="1.2088259"
     inkscape:cx="118.55332"
     inkscape:cy="219.106"
     inkscape:window-x="0"
     inkscape:window-y="27"
     inkscape:window-maximized="1"
     inkscape:current-layer="svg866" />
  <path
     style="fill:#010002"
     d="m 463.98173,48.845522 h -111.747 c -17.576,0 -37.758,8.931 -47.165,31.782 0,0 -4.132,29.144998 -31.782,31.781998 H 50.808727 c -17.543,0.001 -31.782,13.731 -31.782,31.275 v 286.551 c 0,17.544 14.239,31.783 31.782,31.783 H 463.98073 c 17.544,0 31.782,-14.239 31.782,-31.783 V 80.628522 c 0.001,-17.544 -14.237,-31.783 -31.781,-31.783 z m 0,94.838998 v 286.551 H 50.808727 v -286.042 H 273.28673 l 3.051,-0.159 c 29.812,-2.829 48.246,-23.71 56.732,-45.162998 8.263,-20.722 22.661,-18.243 22.661,-18.243 h 108.251 z"
     id="path862"
     inkscape:connector-curvature="0" />
  <path
     style="fill:#010002"
     d="m 336.85173,271.32352 h -63.565 v -63.565 c 0,-8.772 -7.151,-15.891 -15.891,-15.891 -8.772,0 -15.891,7.119 -15.891,15.891 v 63.565 h -63.565 c -8.772,0 -15.891,7.151 -15.891,15.891 0,8.74 7.119,15.891 15.891,15.891 h 63.565 v 63.565 c 0,8.74 7.119,15.891 15.891,15.891 8.74,0 15.891,-7.151 15.891,-15.891 v -63.565 h 63.565 c 8.74,0 15.891,-7.151 15.891,-15.891 0,-8.74 -7.151,-15.891 -15.891,-15.891 z"
     id="path864"
     inkscape:connector-curvature="0" />
</svg>
