<svg xmlns="http://www.w3.org/2000/svg" version="1" width="512" height="512" viewBox="0 0 512 512"><path d="M478 155a62 62 0 0 0-45-19H241v-9c0-17-6-32-18-45a62 62 0 0 0-46-19H86c-17 0-32 7-45 19a62 62 0 0 0-19 45v274c0 18 6 33 19 46 13 12 28 18 45 18h347c18 0 33-6 45-18 13-13 19-28 19-46V200c0-17-6-32-19-45zm-17 246c0 8-3 15-8 20-6 5-12 8-20 8H86c-8 0-14-3-19-8-6-5-8-12-8-20V127c0-7 2-14 8-19 5-5 11-8 19-8h91c8 0 15 3 20 8s8 12 8 19v19c0 7 3 14 8 19s12 8 19 8h201c8 0 14 3 20 8 5 5 8 12 8 19z"/></svg>