<?xml version="1.0" encoding="UTF-8" standalone="no"?>
<!-- Generator: Adobe Illustrator 19.0.0, SVG Export Plug-In . SVG Version: 6.00 Build 0)  -->

<svg
   xmlns:dc="http://purl.org/dc/elements/1.1/"
   xmlns:cc="http://creativecommons.org/ns#"
   xmlns:rdf="http://www.w3.org/1999/02/22-rdf-syntax-ns#"
   xmlns:svg="http://www.w3.org/2000/svg"
   xmlns="http://www.w3.org/2000/svg"
   xmlns:sodipodi="http://sodipodi.sourceforge.net/DTD/sodipodi-0.dtd"
   xmlns:inkscape="http://www.inkscape.org/namespaces/inkscape"
   version="1.1"
   id="Layer_1"
   x="0px"
   y="0px"
   viewBox="0 0 512.00001 512.00001"
   xml:space="preserve"
   sodipodi:docname="ftp.svg"
   inkscape:version="0.92.2 2405546, 2018-03-11"
   width="512"
   height="512"><metadata
   id="metadata51"><rdf:RDF><cc:Work
       rdf:about=""><dc:format>image/svg+xml</dc:format><dc:type
         rdf:resource="http://purl.org/dc/dcmitype/StillImage" /><dc:title></dc:title></cc:Work></rdf:RDF></metadata><defs
   id="defs49" /><sodipodi:namedview
   pagecolor="#ffffff"
   bordercolor="#666666"
   borderopacity="1"
   objecttolerance="10"
   gridtolerance="10"
   guidetolerance="10"
   inkscape:pageopacity="0"
   inkscape:pageshadow="2"
   inkscape:window-width="1680"
   inkscape:window-height="1023"
   id="namedview47"
   showgrid="false"
   inkscape:zoom="0.48222314"
   inkscape:cx="248.84745"
   inkscape:cy="244.7"
   inkscape:window-x="0"
   inkscape:window-y="27"
   inkscape:window-maximized="1"
   inkscape:current-layer="g12" />
<g
   id="g14"
   transform="translate(0,22.600006)">
	<g
   id="g12">
		
		<path
   d="M 24.884745,22.978814 V 149.07881 c 0,15 12.2,27.3 27.3,27.3 h 78.700005 v 27.3 h -26.3 c -5.000005,0 -9.100005,4.1 -9.100005,9.1 0,5 4.1,9.1 9.100005,9.1 h 70.6 c 5,0 9.1,-4.1 9.1,-9.1 0,-5 -4.1,-9.1 -9.1,-9.1 h -26.3 v -27.3 h 78.7 c 15,0 27.3,-12.2 27.3,-27.3 V 22.978814 c 0,-15.0000004 -12.2,-27.3000004 -27.3,-27.3000004 H 52.084745 c -15,0 -27.2,12.3 -27.2,27.3000004 z m 211.900005,0 V 149.07881 c 0,5 -4.1,9.1 -9.1,9.1 H 52.084745 c -5,0 -9.1,-4.1 -9.1,-9.1 V 22.978814 c 0,-5 4.1,-9.1 9.1,-9.1 H 227.58475 c 5.1,0 9.2,4.1 9.2,9.1 z"
   id="path4"
   inkscape:connector-curvature="0" />
		<path
   d="m 470.49492,248.95763 h -175.6 c -15,0 -27.3,12.2 -27.3,27.3 v 126 c 0,15 12.2,27.3 27.3,27.3 h 78.7 v 27.3 h -26.3 c -5,0 -9.1,4.1 -9.1,9.1 0,5 4.1,9.1 9.1,9.1 h 70.7 c 5,0 9.1,-4.1 9.1,-9.1 0,-5 -4.1,-9.1 -9.1,-9.1 h -26.3 v -27.3 h 78.7 c 15,0 27.3,-12.2 27.3,-27.3 v -126.1 c 0,-15 -12.2,-27.2 -27.2,-27.2 z m 9.1,153.3 c 0,5 -4.1,9.1 -9.1,9.1 h -175.6 c -5,0 -9.1,-4.1 -9.1,-9.1 v -126.1 c 0,-5 4.1,-9.1 9.1,-9.1 h 175.5 c 5,0 9.1,4.1 9.1,9.1 v 126.1 z"
   id="path6"
   inkscape:connector-curvature="0" />
		<path
   d="m 286.59492,93.005084 h 87 v 95.300006 c 0,1.1 0.2,2.2 0.6,3.2 l -16.7,-16.7 c -3.5,-3.5 -9.3,-3.5 -12.8,0 -3.5,3.5 -3.5,9.3 0,12.8 l 31.6,31.6 c 1.8,1.8 4.1,2.7 6.4,2.7 2.3,0 4.6,-0.9 6.4,-2.7 l 31.6,-31.6 c 3.5,-3.5 3.5,-9.3 0,-12.8 -3.5,-3.5 -9.3,-3.5 -12.8,0 l -16.7,16.7 c 0.4,-1 0.6,-2.1 0.6,-3.2 V 84.005084 c 0,-5 -4.1,-9.1 -9.1,-9.1 h -96.1 c -5,0 -9.1,4.1 -9.1,9.1 0.1,5 4.1,9 9.1,9 z"
   id="path8"
   inkscape:connector-curvature="0" />
		<path
   d="m 128.71102,389.95763 c 0,5 4.1,9.1 9.1,9.1 h 96.1 c 5,0 9.1,-4.1 9.1,-9.1 0,-5 -4.1,-9.1 -9.1,-9.1 h -87 v -95.3 c 0,-1.1 -0.2,-2.2 -0.6,-3.2 l 16.7,16.7 c 1.8,1.8 4.1,2.7 6.4,2.7 2.3,0 4.6,-0.9 6.4,-2.7 3.5,-3.5 3.5,-9.3 0,-12.8 l -31.6,-31.6 c -3.5,-3.5 -9.3,-3.5 -12.8,0 l -31.600003,31.6 c -3.5,3.5 -3.5,9.3 0,12.8 3.500003,3.5 9.300003,3.5 12.800003,0 l 16.7,-16.7 c -0.4,1 -0.6,2.1 -0.6,3.2 z"
   id="path10"
   inkscape:connector-curvature="0" />
	</g>
</g>
<g
   id="g16"
   transform="translate(0,22.600006)">
</g>
<g
   id="g18"
   transform="translate(0,22.600006)">
</g>
<g
   id="g20"
   transform="translate(0,22.600006)">
</g>
<g
   id="g22"
   transform="translate(0,22.600006)">
</g>
<g
   id="g24"
   transform="translate(0,22.600006)">
</g>
<g
   id="g26"
   transform="translate(0,22.600006)">
</g>
<g
   id="g28"
   transform="translate(0,22.600006)">
</g>
<g
   id="g30"
   transform="translate(0,22.600006)">
</g>
<g
   id="g32"
   transform="translate(0,22.600006)">
</g>
<g
   id="g34"
   transform="translate(0,22.600006)">
</g>
<g
   id="g36"
   transform="translate(0,22.600006)">
</g>
<g
   id="g38"
   transform="translate(0,22.600006)">
</g>
<g
   id="g40"
   transform="translate(0,22.600006)">
</g>
<g
   id="g42"
   transform="translate(0,22.600006)">
</g>
<g
   id="g44"
   transform="translate(0,22.600006)">
</g>
</svg>