<?xml version="1.0" encoding="UTF-8" standalone="no"?>
<svg
   xmlns:dc="http://purl.org/dc/elements/1.1/"
   xmlns:cc="http://creativecommons.org/ns#"
   xmlns:rdf="http://www.w3.org/1999/02/22-rdf-syntax-ns#"
   xmlns:svg="http://www.w3.org/2000/svg"
   xmlns="http://www.w3.org/2000/svg"
   xmlns:sodipodi="http://sodipodi.sourceforge.net/DTD/sodipodi-0.dtd"
   xmlns:inkscape="http://www.inkscape.org/namespaces/inkscape"
   version="1.1"
   viewBox="0 0 512 512"
   enable-background="new 0 0 463 463"
   id="svg992"
   sodipodi:docname="general.svg"
   width="512"
   height="512"
   inkscape:version="0.92.2 5c3e80d, 2017-08-06">
  <metadata
     id="metadata998">
    <rdf:RDF>
      <cc:Work
         rdf:about="">
        <dc:format>image/svg+xml</dc:format>
        <dc:type
           rdf:resource="http://purl.org/dc/dcmitype/StillImage" />
        <dc:title></dc:title>
      </cc:Work>
    </rdf:RDF>
  </metadata>
  <defs
     id="defs996" />
  <sodipodi:namedview
     pagecolor="#ffffff"
     bordercolor="#666666"
     borderopacity="1"
     objecttolerance="10"
     gridtolerance="10"
     guidetolerance="10"
     inkscape:pageopacity="0"
     inkscape:pageshadow="2"
     inkscape:window-width="1680"
     inkscape:window-height="1023"
     id="namedview994"
     showgrid="false"
     inkscape:zoom="1.2446912"
     inkscape:cx="188.5552"
     inkscape:cy="214.43974"
     inkscape:window-x="0"
     inkscape:window-y="27"
     inkscape:window-maximized="1"
     inkscape:current-layer="svg992" />
  <path
     d="M 434.98896,83.300484 C 387.39553,36.312946 324.11577,10.436218 256.80748,10.436218 c -67.30829,0 -130.58805,25.876728 -178.181482,72.864266 C 31.032564,130.28802 4.8204727,192.75969 4.8204727,259.20958 c 0,66.44989 26.2110033,128.92263 73.8055253,175.90909 47.594522,46.98647 110.873192,72.86427 178.181482,72.86427 67.30829,0 130.58805,-25.87673 178.18148,-72.86427 47.59344,-46.98754 73.80553,-109.4592 73.80553,-175.90909 0,-66.44989 -26.211,-128.92263 -73.80553,-175.909096 z M 472.00765,354.313 h -37.54008 c 8.71342,-27.3425 13.60948,-56.73214 14.34966,-87.04381 h 43.49524 c -1.04387,30.46104 -7.98739,59.90549 -20.30482,87.04381 z M 21.302492,267.26919 h 43.495243 c 0.739089,30.31167 5.635148,59.70131 14.349653,87.04381 H 41.607311 C 29.289881,327.17468 22.34636,297.73023 21.302492,267.26919 Z M 41.607311,164.10616 h 37.540077 c -8.713416,27.3425 -13.609475,56.73214 -14.349653,87.04381 H 21.302492 c 1.043868,-30.46104 7.987389,-59.90549 20.304819,-87.04381 z m 320.181329,87.04381 c -0.39512,-30.32671 -3.01187,-59.72388 -7.66193,-87.04381 h 63.10343 c 9.08459,26.73427 14.45306,56.13358 15.2531,87.04381 z M 311.63506,440.2822 h -46.66385 v -69.84997 h 69.46895 c -4.36814,20.38437 -9.97172,39.25031 -16.71713,56.01215 -1.95712,4.86156 -3.99152,9.47058 -6.08797,13.83782 z m -46.66385,50.49401 v -34.37479 h 37.93411 c -11.63712,18.95943 -24.69691,30.87047 -37.93411,34.37479 z m -54.26157,-34.37479 h 37.93411 v 34.37479 c -13.23721,-3.50432 -26.29699,-15.41536 -37.93411,-34.37479 z m -14.81771,-29.95704 c -6.74541,-16.76184 -12.35008,-35.62671 -16.71713,-56.01215 h 69.46895 V 440.2822 H 201.9799 c -2.09645,-4.36724 -4.13085,-8.97626 -6.08797,-13.83782 z M 201.9799,78.13696 h 46.66385 v 69.84997 H 179.1748 c 4.36814,-20.38437 9.97172,-39.25031 16.71713,-56.012154 1.95712,-4.861558 3.99152,-9.470581 6.08797,-13.837816 z m 46.66385,-50.494008 v 34.374783 h -37.93411 c 11.63712,-18.959431 24.6969,-30.870463 37.93411,-34.374783 z m 54.26157,34.374783 H 264.97121 V 27.642952 c 13.2372,3.50432 26.29699,15.415352 37.93411,34.374783 z m 14.81771,29.957041 c 6.74541,16.761844 12.35008,35.626714 16.71713,56.012154 H 264.97121 V 78.13696 h 46.66385 c 2.09645,4.367235 4.13085,8.976258 6.08797,13.837816 z m -69.07928,72.131384 v 87.04381 h -80.48889 c 0.40492,-30.45244 3.09895,-59.87862 7.8818,-87.04381 z m 0,103.16303 V 354.313 h -72.606 c -4.78285,-27.16519 -7.47688,-56.59137 -7.8818,-87.04381 z m 16.32746,87.04381 v -87.04381 h 80.48889 c -0.40492,30.45244 -3.09895,59.87862 -7.8818,87.04381 z m 0,-103.16303 v -87.04381 h 72.606 c 4.78285,27.16519 7.47688,56.59137 7.8818,87.04381 z m 86.12622,-103.16304 c -4.65659,-22.57551 -10.75979,-43.47355 -18.20185,-61.963371 -1.08632,-2.700508 -2.19985,-5.321494 -3.3308,-7.886599 h 37.48674 c 17.94061,19.170059 32.99125,42.89541 44.12331,69.84997 z M 321.68733,62.017735 C 315.89,51.329615 309.64638,42.201836 303.04247,34.73756 c 16.77482,6.058679 32.55694,15.327233 46.94687,27.280175 z m -129.7597,0 h -28.30092 c 14.38993,-11.952942 30.17095,-21.221496 46.94687,-27.280175 -6.605,7.464276 -12.84862,16.592055 -18.64595,27.280175 z m -7.87745,16.119225 c -1.13095,2.565105 -2.24448,5.186091 -3.3308,7.886599 -7.44097,18.489821 -13.54526,39.387861 -18.20185,61.963371 h -60.0774 c 11.13206,-26.95456 26.18161,-50.679911 44.1233,-69.84997 z m -24.56193,85.9692 c -4.65006,27.31993 -7.26681,56.7171 -7.66193,87.04381 H 81.131718 c 0.800045,-30.91023 6.168511,-60.30954 15.253106,-87.04381 z M 81.131718,267.26919 h 70.694602 c 0.39512,30.32671 3.01187,59.72388 7.66193,87.04381 H 96.384824 C 87.300229,327.57873 81.931763,298.17942 81.131718,267.26919 Z m 81.385812,103.16304 c 4.65659,22.57551 10.75979,43.47354 18.20185,61.96337 1.08632,2.70051 2.19985,5.32149 3.3308,7.8866 h -37.48675 c -17.9406,-19.17006 -32.99124,-42.89541 -44.1233,-69.84997 z m 29.4101,85.96919 c 5.79733,10.68812 12.04095,19.8159 18.64486,27.28018 -16.77483,-6.05868 -32.55694,-15.32724 -46.94687,-27.28018 z m 129.7597,0 h 28.30092 c -14.38993,11.95294 -30.17096,21.2215 -46.94687,27.28018 6.605,-7.46428 12.84862,-16.59206 18.64595,-27.28018 z m 7.87745,-16.11922 c 1.13095,-2.56511 2.24448,-5.18609 3.3308,-7.8866 7.44097,-18.48983 13.54526,-39.38786 18.20185,-61.96337 h 60.0774 c -11.13206,26.95456 -26.18161,50.67991 -44.12331,69.84997 z m 24.56193,-85.9692 c 4.65006,-27.31993 7.26681,-56.7171 7.66193,-87.04381 h 70.6946 c -0.80004,30.91023 -6.16851,60.30954 -15.2531,87.04381 z m 94.69052,-103.16303 c -0.73909,-30.31167 -5.63515,-59.70131 -14.34966,-87.04381 h 37.54008 c 12.31852,27.13832 19.26095,56.58277 20.30482,87.04381 z m 15.08438,-103.16304 h -35.10075 c -8.98881,-23.29228 -20.86975,-44.82864 -35.40009,-63.841798 -1.56526,-2.047142 -3.15991,-4.040552 -4.76871,-6.008172 h 16.16853 c 6.45697,5.163524 12.68534,10.679523 18.64269,16.560891 16.21969,16.011759 29.76821,33.952459 40.45833,53.289079 z m -81.8887,-85.969195 h -7.93405 c -3.90009,-3.904076 -7.90031,-7.598602 -11.99306,-11.080354 6.80746,3.36247 13.456,7.059145 19.92711,11.080354 z m -242.47681,0 h -7.93405 c 6.47111,-4.021209 13.11965,-7.717884 19.92711,-11.080354 -4.09275,3.481752 -8.09407,7.176278 -11.99306,11.080354 z M 90.170596,94.697851 C 96.129027,88.816483 102.35632,83.300484 108.81437,78.13696 h 16.16853 c -1.6088,1.96762 -3.20454,3.96103 -4.76871,6.008172 C 105.68385,103.15829 93.803998,124.69465 84.814103,147.98693 H 49.713347 C 60.403474,128.65031 73.951993,110.70961 90.170596,94.697851 Z M 49.713347,370.43223 h 35.100756 c 8.988806,23.29228 20.869747,44.82863 35.400087,63.8418 1.56526,2.04714 3.15991,4.04055 4.76871,6.00817 H 108.81437 C 102.35741,435.11867 96.129027,429.60267 90.171684,423.72131 73.951993,407.70954 60.403474,389.76885 49.713347,370.43223 Z m 81.888703,85.96919 h 7.93405 c 3.90008,3.90408 7.90031,7.5986 11.99306,11.08036 -6.80746,-3.36247 -13.456,-7.05915 -19.92711,-11.08036 z m 242.47681,0 h 7.93405 c -6.47111,4.02121 -13.11965,7.71789 -19.92711,11.08036 4.09275,-3.48176 8.09406,-7.17628 11.99306,-11.08036 z m 49.36551,-32.68011 c -5.95735,5.88136 -12.18573,11.39736 -18.64269,16.56089 h -16.16853 c 1.6088,-1.96762 3.20453,-3.96103 4.7687,-6.00817 14.53035,-19.01317 26.4102,-40.54952 35.4001,-63.8418 h 35.10075 c -10.69121,19.33662 -24.23973,37.27731 -40.45833,53.28908 z"
     id="path990"
     inkscape:connector-curvature="0"
     style="stroke-width:1.08153355" />
</svg>
