<?xml version="1.0" encoding="UTF-8" standalone="no"?>
<svg
   xmlns:dc="http://purl.org/dc/elements/1.1/"
   xmlns:cc="http://creativecommons.org/ns#"
   xmlns:rdf="http://www.w3.org/1999/02/22-rdf-syntax-ns#"
   xmlns:svg="http://www.w3.org/2000/svg"
   xmlns="http://www.w3.org/2000/svg"
   xmlns:sodipodi="http://sodipodi.sourceforge.net/DTD/sodipodi-0.dtd"
   xmlns:inkscape="http://www.inkscape.org/namespaces/inkscape"
   version="1.1"
   id="Capa_1"
   x="0px"
   y="0px"
   viewBox="0 0 512 512"
   xml:space="preserve"
   sodipodi:docname="google-plus.svg"
   width="512"
   height="512"
   inkscape:version="0.92.2 2405546, 2018-03-11"><metadata
   id="metadata5238"><rdf:RDF><cc:Work
       rdf:about=""><dc:format>image/svg+xml</dc:format><dc:type
         rdf:resource="http://purl.org/dc/dcmitype/StillImage" /><dc:title></dc:title></cc:Work></rdf:RDF></metadata><defs
   id="defs5236" /><sodipodi:namedview
   pagecolor="#ffffff"
   bordercolor="#666666"
   borderopacity="1"
   objecttolerance="10"
   gridtolerance="10"
   guidetolerance="10"
   inkscape:pageopacity="0"
   inkscape:pageshadow="2"
   inkscape:window-width="1680"
   inkscape:window-height="1023"
   id="namedview5234"
   showgrid="false"
   inkscape:zoom="1.1848304"
   inkscape:cx="209.70004"
   inkscape:cy="231.94828"
   inkscape:window-x="0"
   inkscape:window-y="27"
   inkscape:window-maximized="1"
   inkscape:current-layer="Capa_1" />

	<path
   style="fill:#DD4B39"
   d="M 409.193,11.608003 H 105.198 C 54.826,11.608003 14,52.434004 14,102.806 v 303.995 c 0,50.372 40.826,91.198 91.198,91.198 h 303.995 c 50.372,0 91.198,-40.827 91.198,-91.198 V 102.806 C 500.392,52.434004 459.565,11.608003 409.193,11.608003 Z M 189.344,418.444 c -53.837,0 -99.254,-21.918 -99.254,-56.938 0,-35.537 41.434,-69.858 95.272,-69.828 l 16.811,-0.152 c -7.357,-7.144 -13.193,-15.929 -13.193,-26.782 0,-6.445 2.067,-12.616 4.925,-18.118 l -8.968,0.304 c -44.231,0 -73.84,-31.463 -73.84,-70.466 0,-38.151 40.887,-71.074 84.359,-71.074 h 96.974 l -21.766,15.686 H 239.93 c 20.398,7.843 31.251,31.615 31.251,55.996 0,20.459 -11.339,38.091 -27.36,50.615 -15.656,12.251 -18.604,17.358 -18.604,27.755 0,8.877 16.781,23.955 25.536,30.187 25.627,18.118 33.865,34.929 33.865,62.988 -0.002,35.02 -33.897,69.827 -95.274,69.827 z M 439.593,224.982 h -60.799 v 60.708 h -30.369 v -60.708 h -60.829 v -30.977 h 60.829 v -60.799 h 30.369 v 60.799 h 60.799 z"
   id="path5227"
   inkscape:connector-curvature="0" />
	<path
   style="fill:#DD4B39"
   d="m 236.342,178.957 c -4.317,-32.771 -28.059,-59.097 -53.017,-59.857 -24.958,-0.73 -41.708,24.35 -37.391,57.181 4.317,32.801 28.059,60.009 53.047,60.738 24.927,0.761 41.708,-25.23 37.361,-58.062 z"
   id="path5229"
   inkscape:connector-curvature="0" />
	<path
   style="fill:#DD4B39"
   d="m 219.774,304.629 c -7.357,-2.371 -15.473,-3.8 -24.137,-3.891 -37.209,-0.395 -70.527,22.678 -70.527,50.433 0,28.332 26.873,51.861 64.082,51.861 52.317,0 70.527,-22.131 70.527,-50.402 0,-3.405 -0.456,-6.749 -1.186,-10.001 -4.073,-16.052 -18.574,-23.986 -38.759,-38 z"
   id="path5231"
   inkscape:connector-curvature="0" />

</svg>