<svg xmlns="http://www.w3.org/2000/svg" x="0" y="0" viewBox="0 0 512 512">
  <path fill="#fbbb00" d="m 113,309 -18,66 -65,1 C 11,341 0,299 0,256 0,214 10,174 28,139 l 3,-3 54,13 29,55 c -5,15 -12,34 -12,51 1,19 5,37 11,54 z"/>
  <path fill="#518ef8" d="m 507,208 c 3,15 5,31 5,48 0,18 -1,36 -5,53 -12,58 -45,109 -90,146 v 0 l -73,-3 -13,-63 c 29,-17 56,-46 68,-78 H 263 V 208 h 138 z"/>
  <path fill="#28B446" d="M416,455l0,0C372,490,316,512,256,512 c-97,0-182-54-225-134l82-67c21,57,77,98,142,98c28,0,54-7,76-20L416,455z"/>
  <path fill="#F14336" d="M419,58l-82,67c-23-14-50-23-80-23c-66,0-123,42-143,102l-83-68h-0C71,56,157,0,256,0 C318,0,375,22,419,58z"/>
</svg>
