<svg xmlns="http://www.w3.org/2000/svg" viewBox="0 0 512 512">
	<path fill="#E6E6E6" d="M479,96h-216l-22,87l-8,57l43,120l6,146h196c18,0,32-14,32-32V128C512,110,497,96,479,96z"/>
	<polygon fill="#3A5BBC" points="368,416 282,507 251,416 264,382 "/>
	<path fill="#808080" d="M469,244v-20h-79v-29h-20v29H297v20h115c-6,13-17,35-32,58c-14-17-23-29-23-30l-6-8l-16,12l6,8c0,0,10,14,27,35c-11,13-31,36-42,46l14,14c9-9,28-30,41-45c16,19,32,37,47,52l7,7l14-14l-7-7c-15-15-32-34-49-54c22-31,36-61,42-74H469z"/>
	<path fill="#518EF8" d="M349,357L368,416H251H32C14,416,0,401,0,383V37C0,18,14,4,32,4h199L262,96l45,137L349,357z"/>
	<path fill="#FFFFFF" d="M149,287c-42,0-77-34-77-77s34-77,77-77c20,0,40,8,54,22l-14,14c-10-10-24-16-40-16c-31,0-56,25-56,56s25,56,56,56c27,0,50-19,55-46h-55v-20h77v10C226,252,192,287,149,287z"/>
</svg>
