<?xml version="1.0" encoding="UTF-8" standalone="no"?>
<!-- Created with Inkscape (http://www.inkscape.org/) -->

<svg
   xmlns:dc="http://purl.org/dc/elements/1.1/"
   xmlns:cc="http://creativecommons.org/ns#"
   xmlns:rdf="http://www.w3.org/1999/02/22-rdf-syntax-ns#"
   xmlns:svg="http://www.w3.org/2000/svg"
   xmlns="http://www.w3.org/2000/svg"
   xmlns:sodipodi="http://sodipodi.sourceforge.net/DTD/sodipodi-0.dtd"
   xmlns:inkscape="http://www.inkscape.org/namespaces/inkscape"
   width="512"
   height="512"
   viewBox="0 0 135.46666 135.46667"
   version="1.1"
   id="svg8"
   inkscape:version="0.92.2 5c3e80d, 2017-08-06"
   sodipodi:docname="move.svg">
  <defs
     id="defs2" />
  <sodipodi:namedview
     id="base"
     pagecolor="#ffffff"
     bordercolor="#666666"
     borderopacity="1.0"
     inkscape:pageopacity="0.0"
     inkscape:pageshadow="2"
     inkscape:zoom="0.98994949"
     inkscape:cx="450.71827"
     inkscape:cy="246.49387"
     inkscape:document-units="mm"
     inkscape:current-layer="layer1"
     showgrid="false"
     units="px"
     inkscape:window-width="1680"
     inkscape:window-height="1023"
     inkscape:window-x="0"
     inkscape:window-y="27"
     inkscape:window-maximized="1" />
  <metadata
     id="metadata5">
    <rdf:RDF>
      <cc:Work
         rdf:about="">
        <dc:format>image/svg+xml</dc:format>
        <dc:type
           rdf:resource="http://purl.org/dc/dcmitype/StillImage" />
        <dc:title></dc:title>
      </cc:Work>
    </rdf:RDF>
  </metadata>
  <g
     inkscape:label="Layer 1"
     inkscape:groupmode="layer"
     id="layer1"
     transform="translate(0,-161.53332)">
    <path
       inkscape:connector-curvature="0"
       d="m 40.403359,281.83007 c 0.52917,0.79375 1.5875,1.32292 2.38125,1.32292 0.79375,0 1.85209,-0.52917 2.64584,-1.32292 l 22.75416,-24.34166 c 1.32292,-1.5875 1.32292,-3.96875 0,-5.55625 -1.5875,-1.5875 -3.70416,-1.5875 -5.29166,0 l -16.40417,17.99166 v -78.31666 c 0,-2.11667 -1.5875,-3.70417 -3.70417,-3.70417 -1.85208,0 -3.70416,1.5875 -3.70416,3.70417 v 78.31666 l -16.66875,-17.99166 c -1.32292,-1.5875 -3.43959,-1.5875 -5.02709,0 -1.32291,1.5875 -1.32291,3.96875 0,5.55625 z"
       id="path4631"
       style="stroke-width:0.26458332" />
    <path
       inkscape:connector-curvature="0"
       d="m 92.245577,177.46605 c 0.52917,-0.79375 1.5875,-1.32292 2.38125,-1.32292 0.79375,0 1.85209,0.52917 2.64584,1.32292 l 22.754173,24.34166 c 1.32292,1.5875 1.32292,3.96875 0,5.55625 -1.5875,1.5875 -3.70416,1.5875 -5.29166,0 L 98.330997,189.3723 v 78.31666 c 0,2.11667 -1.5875,3.70417 -3.70417,3.70417 -1.85208,0 -3.70416,-1.5875 -3.70416,-3.70417 V 189.3723 l -16.66875,17.99166 c -1.32292,1.5875 -3.43959,1.5875 -5.02709,0 -1.32291,-1.5875 -1.32291,-3.96875 0,-5.55625 z"
       id="path4631-3"
       style="stroke-width:0.26458332" />
  </g>
</svg>
