<?xml version="1.0" encoding="UTF-8" standalone="no"?>
<svg
   xmlns:dc="http://purl.org/dc/elements/1.1/"
   xmlns:cc="http://creativecommons.org/ns#"
   xmlns:rdf="http://www.w3.org/1999/02/22-rdf-syntax-ns#"
   xmlns:svg="http://www.w3.org/2000/svg"
   xmlns="http://www.w3.org/2000/svg"
   xmlns:sodipodi="http://sodipodi.sourceforge.net/DTD/sodipodi-0.dtd"
   xmlns:inkscape="http://www.inkscape.org/namespaces/inkscape"
   version="1.1"
   viewBox="0 0 512 512"
   id="svg4635"
   sodipodi:docname="logout.svg"
   inkscape:version="0.92.2 5c3e80d, 2017-08-06">
  <metadata
     id="metadata4641">
    <rdf:RDF>
      <cc:Work
         rdf:about="">
        <dc:format>image/svg+xml</dc:format>
        <dc:type
           rdf:resource="http://purl.org/dc/dcmitype/StillImage" />
      </cc:Work>
    </rdf:RDF>
  </metadata>
  <defs
     id="defs4639" />
  <sodipodi:namedview
     pagecolor="#ffffff"
     bordercolor="#666666"
     borderopacity="1"
     objecttolerance="10"
     gridtolerance="10"
     guidetolerance="10"
     inkscape:pageopacity="0"
     inkscape:pageshadow="2"
     inkscape:window-width="1680"
     inkscape:window-height="1023"
     id="namedview4637"
     showgrid="false"
     inkscape:zoom="0.4609375"
     inkscape:cx="256"
     inkscape:cy="256"
     inkscape:window-x="0"
     inkscape:window-y="27"
     inkscape:window-maximized="1"
     inkscape:current-layer="svg4635" />
  <path
     d="m 375.93571,130.41692 c -7.38056,-9.37005 -19.35254,-9.37165 -26.73562,-0.002 -7.38183,9.37164 -7.38309,24.56497 0,33.93662 l 55.9516,71.02487 h -231.6344 c -10.44066,0 -18.90512,10.74428 -18.90512,23.99705 0,13.25277 8.46446,23.99704 18.90512,23.99704 h 231.63188 l -55.94908,71.01847 c -7.38309,9.37165 -7.38309,24.56498 0,33.93663 3.69154,4.68582 8.52998,7.02793 13.36844,7.02793 4.83844,0 9.67691,-2.34211 13.36718,-7.02793 l 88.22138,-111.98303 c 7.3831,-9.37005 7.3831,-24.56498 0,-33.93663 z"
     id="path4631"
     inkscape:connector-curvature="0"
     style="stroke-width:1.41996419" />
  <path
     d="m 304.69492,512.23729 c 15.47283,0 28.01695,-10.42481 28.01695,-23.28351 0,-12.85871 -12.54412,-23.28352 -28.01695,-23.28352 H 89.898305 V 46.567026 H 304.69492 c 15.47283,0 28.01695,-10.424805 28.01695,-23.283513 C 332.71187,10.424805 320.16775,0 304.69492,0 H 61.881356 C 46.408529,0 33.864407,10.424805 33.864407,23.283513 V 488.95378 c 0,12.8587 12.544122,23.28351 28.016949,23.28351 z"
     id="path4633"
     inkscape:connector-curvature="0"
     style="stroke-width:1.70272064" />
</svg>
