<?xml version="1.0" encoding="UTF-8" standalone="no"?>
<!-- Generator: Adobe Illustrator 16.0.0, SVG Export Plug-In . SVG Version: 6.00 Build 0)  -->

<svg
   xmlns:dc="http://purl.org/dc/elements/1.1/"
   xmlns:cc="http://creativecommons.org/ns#"
   xmlns:rdf="http://www.w3.org/1999/02/22-rdf-syntax-ns#"
   xmlns:svg="http://www.w3.org/2000/svg"
   xmlns="http://www.w3.org/2000/svg"
   xmlns:sodipodi="http://sodipodi.sourceforge.net/DTD/sodipodi-0.dtd"
   xmlns:inkscape="http://www.inkscape.org/namespaces/inkscape"
   version="1.1"
   id="Capa_1"
   x="0px"
   y="0px"
   width="459px"
   height="459px"
   viewBox="0 0 459 459"
   style="enable-background:new 0 0 459 459;"
   xml:space="preserve"
   sodipodi:docname="pdf.svg"
   inkscape:version="0.92.4 5da689c313, 2019-01-14"><metadata
   id="metadata42"><rdf:RDF><cc:Work
       rdf:about=""><dc:format>image/svg+xml</dc:format><dc:type
         rdf:resource="http://purl.org/dc/dcmitype/StillImage" /><dc:title></dc:title></cc:Work></rdf:RDF></metadata><defs
   id="defs40" /><sodipodi:namedview
   pagecolor="#ffffff"
   bordercolor="#666666"
   borderopacity="1"
   objecttolerance="10"
   gridtolerance="10"
   guidetolerance="10"
   inkscape:pageopacity="0"
   inkscape:pageshadow="2"
   inkscape:window-width="1680"
   inkscape:window-height="1023"
   id="namedview38"
   showgrid="false"
   inkscape:zoom="1.4542675"
   inkscape:cx="212.77748"
   inkscape:cy="244.87655"
   inkscape:window-x="0"
   inkscape:window-y="27"
   inkscape:window-maximized="1"
   inkscape:current-layer="drive-pdf" />
<g
   id="g5">
	<g
   id="drive-pdf">
		<path
   d="m 203.89352,112.6995 v 0 c 3.30914,0 3.30914,0 0,0 3.30914,-13.482895 6.61828,-20.224338 6.61828,-30.336501 v -6.741443 c 3.30915,-16.853607 3.30915,-30.336492 0,-33.707213 V 38.543621 L 207.20266,35.1729 v 0 0 c 0,0 0,3.370721 -3.30914,3.370721 -6.61829,20.224328 -6.61829,43.819378 0,74.155879 z m -99.27436,232.57976 c -6.618278,3.37072 -13.23657,6.74144 -16.545716,10.11216 -23.16402,20.22433 -39.709743,43.81807 -43.018888,53.93155 v 0 0 0 c 19.854868,-3.37072 39.709743,-23.59505 59.564604,-64.04371 3.30915,0 3.30915,0 0,0 3.30915,0 0,0 0,0 z m 304.44136,-50.56081 c -3.30915,-3.37073 -16.54573,-13.48289 -62.87376,-13.48289 h -6.61829 v 0 3.37072 c 23.16402,10.11217 46.32802,16.85361 62.87375,16.85361 h 6.6183 v 0 h 3.30914 v -3.37072 0 c 0,0 -3.30914,0 -3.30914,-3.37072 z m 13.23657,26.96577 c -6.61959,3.37072 -16.54572,6.74143 -29.7823,6.74143 -26.47317,0 -66.18291,-6.74143 -99.27435,-23.59504 -56.25547,6.74144 -99.27435,13.48156 -132.36581,26.96445 -3.30915,0 -3.30915,0 -6.61829,3.37072 -39.70974,70.78647 -72.801187,104.49368 -99.274353,104.49368 -6.618286,0 -9.927431,0 -13.236577,-3.37205 L 25.199685,426.17657 v -3.37072 c -3.309145,-6.74277 -3.309145,-10.11216 -3.309145,-16.8536 3.309145,-16.85361 23.164016,-47.19011 62.873759,-70.78647 6.618291,-3.37072 16.545721,-10.11084 29.782301,-16.85361 9.92744,-16.85361 19.85487,-37.07794 33.09146,-60.67166 16.54571,-33.70722 26.47315,-67.41443 36.40059,-97.75092 v 0 C 170.80207,119.44094 164.18377,95.845884 177.42036,48.655786 180.7295,35.1729 190.65694,21.690015 203.89352,21.690015 h 6.61828 c 6.6183,0 13.23659,3.370721 19.85488,6.741443 23.16531,23.595048 13.23658,77.526592 0,121.345962 v 3.37072 c 13.23658,37.07794 33.09144,67.41443 52.94632,87.63876 9.92744,6.74144 16.54573,13.48289 29.7823,20.22433 16.54573,0 29.78231,-3.37072 43.01889,-3.37072 39.70974,0 66.1829,6.74144 76.10904,23.59505 3.31044,6.74276 3.31044,13.48289 3.31044,20.22433 -3.30915,3.37072 -6.61829,13.48288 -13.23658,20.22433 z M 207.20266,190.22608 c -6.61828,23.59505 -19.85487,50.56082 -33.09145,80.89732 -6.61829,13.48156 -13.23658,23.59505 -19.85487,37.07793 h 3.30914 3.30915 v 0 c 43.01889,-16.85361 82.72863,-26.96577 109.20179,-30.33649 -6.61959,-3.37072 -9.92744,-6.74144 -13.23658,-10.11217 -16.54572,-20.22433 -36.4006,-47.1901 -49.63718,-77.52659 z"
   id="path2"
   inkscape:connector-curvature="0"
   inkscape:label="path2"
   sodipodi:nodetypes="cccsccccccccccccccccccscccscccccccscccsccccccccccsscccccscccccccccccc"
   style="stroke-width:1.30972207" />
	</g>
</g>















</svg>