<svg version="1.1" id="Layer_1" xmlns="http://www.w3.org/2000/svg" xmlns:xlink="http://www.w3.org/1999/xlink" x="0px" y="0px"
	 viewBox="0 0 512 512" style="enable-background:new 0 0 512 512;" xml:space="preserve">
<g>
	<g>
		<path d="M444.254,23.532H67.746C30.391,23.532,0,53.923,0,91.278v141.191c0,68.38,26.629,132.667,74.981,181.019
			C123.332,461.84,187.62,488.468,256,488.468s132.667-26.629,181.019-74.981C485.371,365.136,512,300.848,512,232.468V91.278
			C512,53.923,481.61,23.532,444.254,23.532z M470.636,232.468c0,118.35-96.285,214.636-214.636,214.636
			S41.364,350.818,41.364,232.468V91.278c0-14.547,11.835-26.381,26.381-26.381h376.508c14.547,0,26.381,11.835,26.381,26.381
			V232.468z"/>
	</g>
</g>
<g>
	<g>
		<path d="M364.752,194.311c-8.077-8.077-21.172-8.077-29.249,0L256,273.813l-79.502-79.502c-8.077-8.077-21.173-8.076-29.249,0
			c-8.077,8.077-8.077,21.172,0,29.249l94.127,94.128c3.879,3.879,9.14,6.058,14.625,6.058c5.486,0,10.746-2.179,14.625-6.058
			l94.127-94.129C372.828,215.483,372.828,202.388,364.752,194.311z"/>
	</g>
</g>

</svg>
