<?xml version="1.0" encoding="UTF-8" standalone="no"?>
<!-- Generator: Adobe Illustrator 16.0.0, SVG Export Plug-In . SVG Version: 6.00 Build 0)  -->

<svg
   xmlns:dc="http://purl.org/dc/elements/1.1/"
   xmlns:cc="http://creativecommons.org/ns#"
   xmlns:rdf="http://www.w3.org/1999/02/22-rdf-syntax-ns#"
   xmlns:svg="http://www.w3.org/2000/svg"
   xmlns="http://www.w3.org/2000/svg"
   xmlns:sodipodi="http://sodipodi.sourceforge.net/DTD/sodipodi-0.dtd"
   xmlns:inkscape="http://www.inkscape.org/namespaces/inkscape"
   version="1.1"
   id="Capa_1"
   x="0px"
   y="0px"
   width="512"
   height="512"
   viewBox="0 0 512.00001 512.00001"
   xml:space="preserve"
   sodipodi:docname="reload.svg"
   inkscape:version="0.92.2 5c3e80d, 2017-08-06"><metadata
     id="metadata45"><rdf:RDF><cc:Work
         rdf:about=""><dc:format>image/svg+xml</dc:format><dc:type
           rdf:resource="http://purl.org/dc/dcmitype/StillImage" /><dc:title></dc:title></cc:Work></rdf:RDF></metadata><defs
     id="defs43" /><sodipodi:namedview
     pagecolor="#ffffff"
     bordercolor="#666666"
     borderopacity="1"
     objecttolerance="10"
     gridtolerance="10"
     guidetolerance="10"
     inkscape:pageopacity="0"
     inkscape:pageshadow="2"
     inkscape:window-width="1680"
     inkscape:window-height="1023"
     id="namedview41"
     showgrid="false"
     inkscape:zoom="0.68530942"
     inkscape:cx="-86.092499"
     inkscape:cy="172.185"
     inkscape:window-x="0"
     inkscape:window-y="27"
     inkscape:window-maximized="1"
     inkscape:current-layer="Capa_1" /><g
     id="g8"
     transform="matrix(1.4322035,0,0,1.496751,5.8366188,1.1116112)"><g
       id="g6"><path
         d="m 334.485,37.463 c -6.753,-1.449 -13.396,2.853 -14.842,9.603 l -9.084,42.391 C 281.637,40.117 228.551,9.155 170.368,9.155 c -89.603,0 -162.5,72.896 -162.5,162.5 0,6.903 5.596,12.5 12.5,12.5 6.903,0 12.5,-5.597 12.5,-12.5 0,-75.818 61.682,-137.5 137.5,-137.5 49.429,0 94.515,26.403 118.925,68.443 l -41.674,-8.931 c -6.752,-1.447 -13.396,2.854 -14.841,9.604 -1.446,6.75 2.854,13.396 9.604,14.842 l 71.536,15.33 c 1.215,0.261 2.449,0.336 3.666,0.234 2.027,-0.171 4.003,-0.836 5.743,-1.962 2.784,-1.801 4.738,-4.634 5.433,-7.875 l 15.331,-71.536 c 1.444,-6.749 -2.856,-13.393 -9.606,-14.841 z"
         id="path2"
         inkscape:connector-curvature="0" /><path
         d="m 321.907,155.271 c -6.899,0.228 -12.309,6.006 -12.081,12.905 1.212,36.708 -11.942,71.689 -37.042,98.504 -25.099,26.812 -59.137,42.248 -95.844,43.46 -1.53,0.05 -3.052,0.075 -4.576,0.075 -47.896,-0.002 -92.018,-24.877 -116.936,-65.18 l 43.447,11.65 c 6.668,1.787 13.523,-2.168 15.311,-8.837 1.788,-6.668 -2.168,-13.522 -8.836,-15.312 L 34.686,213.59 c -3.202,-0.857 -6.615,-0.409 -9.485,1.247 -2.872,1.656 -4.967,4.387 -5.826,7.589 L 0.43,293.092 c -1.788,6.668 2.168,13.522 8.836,15.311 1.085,0.291 2.173,0.431 3.245,0.431 5.518,0 10.569,-3.684 12.066,-9.267 L 35.226,259.85 c 29.624,46.647 81.189,75.367 137.132,75.365 1.797,0 3.604,-0.029 5.408,-0.089 43.381,-1.434 83.608,-19.674 113.271,-51.362 29.663,-31.688 45.209,-73.031 43.776,-116.413 -0.227,-6.898 -6.008,-12.325 -12.906,-12.08 z"
         id="path4"
         inkscape:connector-curvature="0" /></g></g><g
     id="g10"
     transform="translate(0,167.63)" /><g
     id="g12"
     transform="translate(0,167.63)" /><g
     id="g14"
     transform="translate(0,167.63)" /><g
     id="g16"
     transform="translate(0,167.63)" /><g
     id="g18"
     transform="translate(0,167.63)" /><g
     id="g20"
     transform="translate(0,167.63)" /><g
     id="g22"
     transform="translate(0,167.63)" /><g
     id="g24"
     transform="translate(0,167.63)" /><g
     id="g26"
     transform="translate(0,167.63)" /><g
     id="g28"
     transform="translate(0,167.63)" /><g
     id="g30"
     transform="translate(0,167.63)" /><g
     id="g32"
     transform="translate(0,167.63)" /><g
     id="g34"
     transform="translate(0,167.63)" /><g
     id="g36"
     transform="translate(0,167.63)" /><g
     id="g38"
     transform="translate(0,167.63)" /></svg>