<svg xmlns="http://www.w3.org/2000/svg" width="512" height="512" viewBox="0 0 512 512"><g><path d="M85 365c-18 0-33 6-46 19a63 63 0 0 0-18 46c0 18 6 33 18 45 13 13 28 19 46 19 17 0 32-6 45-19 12-12 18-27 18-45s-6-33-18-46a61 61 0 0 0-45-19zm146-84a294 294 0 0 0-187-88h-2c-6 0-11 2-14 6-5 4-7 9-7 16v45a21 21 0 0 0 19 21c51 5 94 26 130 62 36 37 57 80 61 132 1 5 3 10 7 14 4 3 9 5 14 5h45c7 0 12-2 16-7 4-4 6-10 6-16a304 304 0 0 0-88-190z"/><path d="M449 303A471 471 0 0 0 43 21h-1c-6 0-11 2-15 6s-6 9-6 16v48c0 5 2 10 6 14 3 4 8 7 14 7a373 373 0 0 1 247 112 386 386 0 0 1 111 250c0 6 2 10 6 14s9 6 15 6h48c6 0 11-2 15-7 4-4 6-9 6-15-3-59-16-115-40-169z"/></g></svg>