<?xml version="1.0" encoding="UTF-8" standalone="no"?>
<svg
   xmlns:dc="http://purl.org/dc/elements/1.1/"
   xmlns:cc="http://creativecommons.org/ns#"
   xmlns:rdf="http://www.w3.org/1999/02/22-rdf-syntax-ns#"
   xmlns:svg="http://www.w3.org/2000/svg"
   xmlns="http://www.w3.org/2000/svg"
   xmlns:sodipodi="http://sodipodi.sourceforge.net/DTD/sodipodi-0.dtd"
   xmlns:inkscape="http://www.inkscape.org/namespaces/inkscape"
   version="1.1"
   x="0px"
   y="0px"
   viewBox="0 0 512.00002 512.00002"
   xml:space="preserve"
   id="svg4565"
   sodipodi:docname="share.svg"
   width="512"
   height="512"
   inkscape:version="0.92.2 2405546, 2018-03-11"><metadata
   id="metadata4571"><rdf:RDF><cc:Work
       rdf:about=""><dc:format>image/svg+xml</dc:format><dc:type
         rdf:resource="http://purl.org/dc/dcmitype/StillImage" /><dc:title></dc:title></cc:Work></rdf:RDF></metadata><defs
   id="defs4569" /><sodipodi:namedview
   pagecolor="#ffffff"
   bordercolor="#666666"
   borderopacity="1"
   objecttolerance="10"
   gridtolerance="10"
   guidetolerance="10"
   inkscape:pageopacity="0"
   inkscape:pageshadow="2"
   inkscape:window-width="1680"
   inkscape:window-height="1023"
   id="namedview4567"
   showgrid="false"
   inkscape:zoom="1.0973814"
   inkscape:cx="226.14388"
   inkscape:cy="237.62066"
   inkscape:window-x="0"
   inkscape:window-y="27"
   inkscape:window-maximized="1"
   inkscape:current-layer="svg4565" />
	<path
   d="m 397.80405,354.15405 c -18.90621,0 -35.82936,7.07808 -48.72309,18.23811 L 171.52345,273.84603 c 1.28144,-5.46152 2.27297,-10.96269 2.27297,-16.64137 0,-5.67868 -1.01231,-11.16003 -2.27297,-16.64137 l 175.55272,-97.6198 c 13.3895,11.83044 31.09737,19.22389 50.72788,19.22389 41.38762,0 74.73814,-31.76439 74.73814,-71.257438 0,-39.413764 -33.37129,-71.256553 -74.73814,-71.256553 -41.30547,0 -74.67582,31.842789 -74.67582,71.23763 0,5.757077 1.01231,11.160021 2.27298,16.641371 l -175.55367,97.69819 c -13.41027,-11.88902 -31.09737,-19.26355 -50.74866,-19.26355 -41.387618,0 -74.73814,31.82386 -74.73814,71.23763 0,39.41377 33.350522,71.25746 74.73814,71.25746 19.62957,0 37.33839,-7.39436 50.72789,-19.2239 l 177.24683,98.76329 c -1.21912,5.02809 -1.98402,10.27245 -1.98402,15.49787 0,38.25137 32.66778,69.36517 72.69275,69.36517 40.06558,0 72.75413,-31.09398 72.75413,-69.36517 0,-38.27117 -32.66683,-69.34533 -72.73241,-69.34533 z"
   id="path4563"
   inkscape:connector-curvature="0"
   style="stroke-width:0.92245245" />

</svg>