<?xml version="1.0" encoding="UTF-8" standalone="no"?>
<!-- Generator: Adobe Illustrator 19.1.0, SVG Export Plug-In . SVG Version: 6.00 Build 0)  -->

<svg
   xmlns:dc="http://purl.org/dc/elements/1.1/"
   xmlns:cc="http://creativecommons.org/ns#"
   xmlns:rdf="http://www.w3.org/1999/02/22-rdf-syntax-ns#"
   xmlns:svg="http://www.w3.org/2000/svg"
   xmlns="http://www.w3.org/2000/svg"
   xmlns:sodipodi="http://sodipodi.sourceforge.net/DTD/sodipodi-0.dtd"
   xmlns:inkscape="http://www.inkscape.org/namespaces/inkscape"
   version="1.1"
   id="Capa_1"
   x="0px"
   y="0px"
   viewBox="0 0 511.99999 511.99999"
   xml:space="preserve"
   sodipodi:docname="hide-readed.svg"
   width="512"
   height="512"
   inkscape:version="0.92.2 5c3e80d, 2017-08-06"><metadata
     id="metadata45"><rdf:RDF><cc:Work
         rdf:about=""><dc:format>image/svg+xml</dc:format><dc:type
           rdf:resource="http://purl.org/dc/dcmitype/StillImage" /><dc:title /></cc:Work></rdf:RDF></metadata><defs
     id="defs43" /><sodipodi:namedview
     pagecolor="#ffffff"
     bordercolor="#666666"
     borderopacity="1"
     objecttolerance="10"
     gridtolerance="10"
     guidetolerance="10"
     inkscape:pageopacity="0"
     inkscape:pageshadow="2"
     inkscape:window-width="1680"
     inkscape:window-height="1023"
     id="namedview41"
     showgrid="false"
     inkscape:zoom="1.0871904"
     inkscape:cx="104.48931"
     inkscape:cy="227.16086"
     inkscape:window-x="0"
     inkscape:window-y="27"
     inkscape:window-maximized="1"
     inkscape:current-layer="Capa_1" /><path
     d="M 497.8049,250.14053 C 422.21745,147.18027 340.94635,96.553207 256.23746,98.992556 119.57278,103.28609 25.497794,244.74717 21.558137,250.76094 c -0.181926,0.28201 -0.307393,0.59221 -0.464227,0.88832 -0.13174,0.2256 -0.250933,0.45826 -0.370127,0.70501 -0.2823,0.56402 -0.520687,1.12803 -0.721433,1.71319 -0.0941,0.282 -0.175654,0.56401 -0.257207,0.84602 -0.156834,0.55696 -0.288574,1.11392 -0.382674,1.67793 -0.06273,0.36661 -0.100373,0.73321 -0.13174,1.10687 -0.04391,0.47941 -0.07528,0.95882 -0.07528,1.44528 0,0.47941 0.03137,0.95882 0.07528,1.43823 0.03764,0.37366 0.07528,0.73321 0.13174,1.10687 0.0941,0.56401 0.22584,1.12097 0.382674,1.67793 0.08155,0.28201 0.163106,0.56402 0.257207,0.84602 0.200746,0.58516 0.445407,1.14917 0.721433,1.71319 0.119194,0.2397 0.232114,0.46531 0.370127,0.70501 0.156834,0.28906 0.282301,0.60631 0.464227,0.88832 3.939657,6.02082 98.014643,147.47485 234.679323,151.76838 2.11411,0.0634 4.21568,0.0987 6.31725,0.0987 82.42539,0 161.53846,-50.85266 235.25019,-151.24667 1.93846,-2.63675 2.81673,-5.83047 2.81046,-8.99598 0.006,-3.17256 -0.872,-6.36628 -2.81046,-9.00303 z M 257.09063,391.1081 C 150.83282,387.85798 69.637004,288.7612 47.699139,259.14356 69.637004,229.52592 150.82655,130.42208 257.09063,127.17197 331.25404,124.99348 403.29078,169.39526 471.64508,259.14356 403.29706,348.89891 331.32932,393.51925 257.09063,391.1081 Z"
     id="path2"
     inkscape:connector-curvature="0"
     style="stroke-width:6.65040731;fill-rule:nonzero" /><circle
     id="circle852"
     cx="259.2926"
     cy="257.3728"
     style="stroke-width:6.12803221"
     r="82" /><path
     style="display:inline;fill:none;stroke:#000000;stroke-width:32;stroke-linecap:butt;stroke-linejoin:miter;stroke-miterlimit:4;stroke-dasharray:none;stroke-opacity:1"
     d="M 99.338628,434.73662 412.99115,93.490032"
     id="path912"
     inkscape:connector-curvature="0"
     sodipodi:nodetypes="cc" /><path
     style="display:inline;fill:none;stroke:#000000;stroke-width:32;stroke-linecap:butt;stroke-linejoin:miter;stroke-miterlimit:4;stroke-dasharray:none;stroke-opacity:1"
     d="M 412.99115,434.73662 99.33863,93.490032"
     id="path912-3"
     inkscape:connector-curvature="0"
     sodipodi:nodetypes="cc" /></svg>