<?xml version="1.0" encoding="UTF-8" standalone="no"?>
<!-- Generator: Adobe Illustrator 18.0.0, SVG Export Plug-In . SVG Version: 6.00 Build 0)  -->

<svg
   xmlns:dc="http://purl.org/dc/elements/1.1/"
   xmlns:cc="http://creativecommons.org/ns#"
   xmlns:rdf="http://www.w3.org/1999/02/22-rdf-syntax-ns#"
   xmlns:svg="http://www.w3.org/2000/svg"
   xmlns="http://www.w3.org/2000/svg"
   xmlns:sodipodi="http://sodipodi.sourceforge.net/DTD/sodipodi-0.dtd"
   xmlns:inkscape="http://www.inkscape.org/namespaces/inkscape"
   version="1.1"
   id="Capa_1"
   x="0px"
   y="0px"
   viewBox="0 0 455.731 455.731"
   xml:space="preserve"
   sodipodi:docname="telegram.svg"
   style="enable-background:new 0 0 455.731 455.731;"
   inkscape:version="0.92.2 2405546, 2018-03-11"><metadata
   id="metadata43"><rdf:RDF><cc:Work
       rdf:about=""><dc:format>image/svg+xml</dc:format><dc:type
         rdf:resource="http://purl.org/dc/dcmitype/StillImage" /><dc:title></dc:title></cc:Work></rdf:RDF></metadata><defs
   id="defs41" /><sodipodi:namedview
   pagecolor="#ffffff"
   bordercolor="#666666"
   borderopacity="1"
   objecttolerance="10"
   gridtolerance="10"
   guidetolerance="10"
   inkscape:pageopacity="0"
   inkscape:pageshadow="2"
   inkscape:window-width="1680"
   inkscape:window-height="1023"
   id="namedview39"
   showgrid="false"
   units="mm"
   inkscape:zoom="1.4646992"
   inkscape:cx="201.56983"
   inkscape:cy="226.44586"
   inkscape:window-x="0"
   inkscape:window-y="27"
   inkscape:window-maximized="1"
   inkscape:current-layer="g6" />
<g
   id="g6">
	<rect
   x="0"
   y="0"
   style="fill:#61a8de"
   width="455.73099"
   height="455.73099"
   id="rect2"
   rx="90"
   ry="90" />
	<path
   style="fill:#ffffff"
   d="M 358.844,100.6 54.091,219.359 c -9.871,3.847 -9.273,18.012 0.888,21.012 l 77.441,22.868 28.901,91.706 c 3.019,9.579 15.158,12.483 22.185,5.308 l 40.039,-40.882 78.56,57.665 c 9.614,7.057 23.306,1.814 25.747,-9.859 l 52.031,-248.76 C 382.431,106.232 370.443,96.08 358.844,100.6 Z M 320.636,155.806 179.08,280.984 c -1.411,1.248 -2.309,2.975 -2.519,4.847 l -5.45,48.448 c -0.178,1.58 -2.389,1.789 -2.861,0.271 l -22.423,-72.253 c -1.027,-3.308 0.312,-6.892 3.255,-8.717 L 316.245,149.904 c 3.844,-2.386 7.78,2.906 4.391,5.902 z"
   id="path4"
   inkscape:connector-curvature="0" />
</g>















</svg>