<?xml version="1.0" encoding="iso-8859-1"?>
<!-- Generator: Adobe Illustrator 16.0.0, SVG Export Plug-In . SVG Version: 6.00 Build 0)  -->
<!DOCTYPE svg PUBLIC "-//W3C//DTD SVG 1.1//EN" "http://www.w3.org/Graphics/SVG/1.1/DTD/svg11.dtd">
<svg version="1.1" id="Capa_1" xmlns="http://www.w3.org/2000/svg" xmlns:xlink="http://www.w3.org/1999/xlink" x="0px" y="0px"
	 width="792px" height="792px" viewBox="0 0 792 792" style="enable-background:new 0 0 792 792;" xml:space="preserve">
<g>
	<path d="M222.387,792c-16.602,0-36.002-12.519-36.002-47.859V47.86c0-35.341,19.4-47.86,36.002-47.86
		c12.052,0,24.221,6.026,36.157,18.001L583.843,343.3c14.035,13.996,21.772,32.736,21.772,52.681
		c0,19.945-7.737,38.685-21.772,52.681L258.544,773.96C246.569,785.974,234.4,792,222.387,792z M225.769,40.979
		c-0.272,1.71-0.505,4.004-0.505,6.881v696.281c0,2.877,0.233,5.209,0.505,6.959c1.438-1.011,3.227-2.488,5.249-4.549
		l325.299-325.299c6.688-6.688,10.381-15.63,10.381-25.193c0-9.564-3.654-18.584-10.381-25.271L231.018,45.488
		C228.996,43.428,227.208,41.95,225.769,40.979z"/>
</g>
<g>
</g>
<g>
</g>
<g>
</g>
<g>
</g>
<g>
</g>
<g>
</g>
<g>
</g>
<g>
</g>
<g>
</g>
<g>
</g>
<g>
</g>
<g>
</g>
<g>
</g>
<g>
</g>
<g>
</g>
</svg>
