<?xml version="1.0" encoding="UTF-8" standalone="no"?>
<svg
   xmlns:dc="http://purl.org/dc/elements/1.1/"
   xmlns:cc="http://creativecommons.org/ns#"
   xmlns:rdf="http://www.w3.org/1999/02/22-rdf-syntax-ns#"
   xmlns:svg="http://www.w3.org/2000/svg"
   xmlns="http://www.w3.org/2000/svg"
   xmlns:sodipodi="http://sodipodi.sourceforge.net/DTD/sodipodi-0.dtd"
   xmlns:inkscape="http://www.inkscape.org/namespaces/inkscape"
   version="1.1"
   x="0px"
   y="0px"
   viewBox="0 0 512 512"
   id="svg3433"
   sodipodi:docname="unarchive.svg"
   inkscape:version="0.92.2 5c3e80d, 2017-08-06">
  <metadata
     id="metadata3439">
    <rdf:RDF>
      <cc:Work
         rdf:about="">
        <dc:format>image/svg+xml</dc:format>
        <dc:type
           rdf:resource="http://purl.org/dc/dcmitype/StillImage" />
        <dc:title></dc:title>
      </cc:Work>
    </rdf:RDF>
  </metadata>
  <defs
     id="defs3437" />
  <sodipodi:namedview
     pagecolor="#ffffff"
     bordercolor="#666666"
     borderopacity="1"
     objecttolerance="10"
     gridtolerance="10"
     guidetolerance="10"
     inkscape:pageopacity="0"
     inkscape:pageshadow="2"
     inkscape:window-width="1680"
     inkscape:window-height="1023"
     id="namedview3435"
     showgrid="false"
     inkscape:zoom="0.921875"
     inkscape:cx="323.90709"
     inkscape:cy="207.91673"
     inkscape:window-x="0"
     inkscape:window-y="27"
     inkscape:window-maximized="1"
     inkscape:current-layer="svg3433" />
  <path
     d="m 467.69492,85.186441 h -101.2 v -16.5 c 0,-29.5 -24,-53.5 -53.5,-53.5 h -96.2 c -29.5,0 -53.5,24 -53.5,53.5 v 16.5 H 62.094915 c -7.5,0 -13.5,6 -13.5,13.5 0,7.499999 6,13.499999 13.5,13.499999 h 24.4 v 317.2 c 0,39.8 32.400005,72.2 72.200005,72.2 h 212.4 c 39.8,0 72.2,-32.4 72.2,-72.2 v -317.2 h 24.4 c 7.5,0 13.5,-6 13.5,-13.499999 0,-7.5 -6,-13.5 -13.5,-13.5 z m -277.4,-16.5 c 0,-14.6 11.9,-26.5 26.5,-26.5 h 96.2 c 14.6,0 26.5,11.9 26.5,26.5 v 16.5 h -149.2 z m 226,360.699999 c 0,24.9 -20.3,45.2 -45.2,45.2 h -212.4 c -24.9,0 -45.2,-20.3 -45.2,-45.2 v -317.2 h 302.9 v 317.2 z"
     id="path3425"
     inkscape:connector-curvature="0" />
  <path
     d="m 264.89492,426.18644 c 7.5,0 13.5,-6 13.5,-13.5 v -238.6 c 0,-7.5 -6,-13.5 -13.5,-13.5 -7.5,0 -13.5,6 -13.5,13.5 v 238.5 c 0,7.5 6,13.6 13.5,13.6 z"
     id="path3427"
     inkscape:connector-curvature="0" />
  <path
     d="m 176.79492,411.28644 c 7.5,0 13.5,-6 13.5,-13.5 v -208.9 c 0,-7.5 -6,-13.5 -13.5,-13.5 -7.5,0 -13.5,6 -13.5,13.5 v 208.9 c 0,7.5 6.1,13.5 13.5,13.5 z"
     id="path3429"
     inkscape:connector-curvature="0" />
  <path
     d="m 352.99492,411.28644 c 7.5,0 13.5,-6 13.5,-13.5 v -208.9 c 0,-7.5 -6,-13.5 -13.5,-13.5 -7.5,0 -13.5,6 -13.5,13.5 v 208.9 c 0,7.5 6,13.5 13.5,13.5 z"
     id="path3431"
     inkscape:connector-curvature="0" />
  <path
     style="fill:none;stroke:#000000;stroke-width:48.002;stroke-linecap:butt;stroke-linejoin:miter;stroke-opacity:1;stroke-miterlimit:4;stroke-dasharray:none"
     d="M 46.644068,50.983051 462.1017,469.69492"
     id="path866"
     inkscape:connector-curvature="0" />
  <path
     style="fill:none;stroke:#000000;stroke-width:48.0019989;stroke-linecap:butt;stroke-linejoin:miter;stroke-miterlimit:4;stroke-dasharray:none;stroke-opacity:1"
     d="M 462.1017,50.983051 46.644068,469.69492"
     id="path866-3"
     inkscape:connector-curvature="0" />
</svg>
