<svg xmlns="http://www.w3.org/2000/svg" viewBox="0 0 512 512" width="512" height="512"><path d="M491 232c9-9 13-24 8-37-4-13-14-22-28-24l-118-19c-5 0-9-4-11-8L289 31c-5-12-17-20-31-20-13 0-25 7-31 20l-54 112c-2 4-6 8-11 9L43 170c-13 2-24 11-28 24s0 27 8 38l85 87c3 3 5 9 4 14L94 457c-2 13 3 27 13 35s24 9 36 2l107-56c4-2 9-2 14 0l105 58c5 2 10 4 16 4 7 0 14-2 20-7 10-8 16-22 13-35l-17-124c0-5 0-10 4-14zM382 338l20 123c1 6-1 12-6 15-4 3-10 4-16 1l-106-57c-5-2-10-4-16-4-5 0-11 1-16 4l-107 58c-5 2-11 2-16-1-4-3-7-9-6-15l20-124c1-11-1-24-10-32l-85-88c-4-4-5-10-3-16 0 0 1-7 12-11l117-19c11-1 21-9 26-20l54-112c2-5 7-9 13-9s11 3 13 9l54 112c5 10 14 18 26 20l118 17c5 0 10 5 12 11 2 5 0 12-3 17l-85 87c-8 8-12 20-10 32z"/></svg>