<?xml version="1.0" encoding="UTF-8" standalone="no"?>
<svg
   xmlns:dc="http://purl.org/dc/elements/1.1/"
   xmlns:cc="http://creativecommons.org/ns#"
   xmlns:rdf="http://www.w3.org/1999/02/22-rdf-syntax-ns#"
   xmlns:svg="http://www.w3.org/2000/svg"
   xmlns="http://www.w3.org/2000/svg"
   xmlns:sodipodi="http://sodipodi.sourceforge.net/DTD/sodipodi-0.dtd"
   xmlns:inkscape="http://www.inkscape.org/namespaces/inkscape"
   version="1.1"
   x="0px"
   y="0px"
   viewBox="0 0 512 512"
   xml:space="preserve"
   id="svg5233"
   sodipodi:docname="video.svg"
   inkscape:version="0.92.2 5c3e80d, 2017-08-06"><metadata
     id="metadata5239"><rdf:RDF><cc:Work
         rdf:about=""><dc:format>image/svg+xml</dc:format><dc:type
           rdf:resource="http://purl.org/dc/dcmitype/StillImage" /></cc:Work></rdf:RDF></metadata><defs
     id="defs5237" /><sodipodi:namedview
     pagecolor="#ffffff"
     bordercolor="#666666"
     borderopacity="1"
     objecttolerance="10"
     gridtolerance="10"
     guidetolerance="10"
     inkscape:pageopacity="0"
     inkscape:pageshadow="2"
     inkscape:window-width="1680"
     inkscape:window-height="1023"
     id="namedview5235"
     showgrid="false"
     inkscape:zoom="0.4609375"
     inkscape:cx="256"
     inkscape:cy="256"
     inkscape:window-x="0"
     inkscape:window-y="27"
     inkscape:window-maximized="1"
     inkscape:current-layer="svg5233" /><path
     d="M 495.98538,94.730275 C 477.35578,70.84603 442.9601,61.103441 377.272,61.103441 H 138.8247 c -67.19145,0 -102.169826,10.371026 -120.729509,35.799434 C 0,121.69566 0,158.22588 0,208.78463 v 96.36473 c 0,97.94839 21.469831,147.67941 138.8247,147.67941 h 238.44897 c 56.96431,0 88.52975,-8.59704 108.95073,-29.67486 20.94208,-21.61468 29.87729,-56.90599 29.87729,-118.00455 v -96.36473 c 0,-53.31849 -1.40013,-90.06417 -20.11631,-114.054355 z M 331.33895,270.27103 223.06082,331.30316 c -2.42069,1.36462 -5.06779,2.04153 -7.71156,2.04153 -2.99339,0 -5.98012,-0.86903 -8.62556,-2.59635 -4.98121,-3.2553 -8.02288,-9.07824 -8.02288,-15.35903 V 193.71648 c 0,-6.27002 3.03334,-12.08756 8.00457,-15.34467 4.97289,-3.25711 11.15778,-3.47975 16.31714,-0.58893 l 108.27813,60.63891 c 5.50897,3.08473 8.96852,9.21829 8.97684,15.91026 0.007,6.69735 -3.4379,12.83989 -8.93855,15.93898 z"
     id="path5231"
     inkscape:connector-curvature="0"
     style="stroke-width:1.72895658" /></svg>