<?xml version="1.0" encoding="UTF-8" standalone="no"?>
<svg
   xmlns:dc="http://purl.org/dc/elements/1.1/"
   xmlns:cc="http://creativecommons.org/ns#"
   xmlns:rdf="http://www.w3.org/1999/02/22-rdf-syntax-ns#"
   xmlns:svg="http://www.w3.org/2000/svg"
   xmlns="http://www.w3.org/2000/svg"
   xmlns:sodipodi="http://sodipodi.sourceforge.net/DTD/sodipodi-0.dtd"
   xmlns:inkscape="http://www.inkscape.org/namespaces/inkscape"
   version="1.1"
   x="0px"
   y="0px"
   viewBox="0 0 512 512"
   xml:space="preserve"
   id="svg5302"
   sodipodi:docname="vkontakte.svg"
   width="512"
   height="512"
   inkscape:version="0.92.2 2405546, 2018-03-11"><metadata
   id="metadata5308"><rdf:RDF><cc:Work
       rdf:about=""><dc:format>image/svg+xml</dc:format><dc:type
         rdf:resource="http://purl.org/dc/dcmitype/StillImage" /><dc:title></dc:title></cc:Work></rdf:RDF></metadata><defs
   id="defs5306" /><sodipodi:namedview
   pagecolor="#ffffff"
   bordercolor="#666666"
   borderopacity="1"
   objecttolerance="10"
   gridtolerance="10"
   guidetolerance="10"
   inkscape:pageopacity="0"
   inkscape:pageshadow="2"
   inkscape:window-width="1680"
   inkscape:window-height="1023"
   id="namedview5304"
   showgrid="false"
   inkscape:zoom="1.5007605"
   inkscape:cx="216.33899"
   inkscape:cy="254.12844"
   inkscape:window-x="0"
   inkscape:window-y="27"
   inkscape:window-maximized="1"
   inkscape:current-layer="svg5302" />
	<path
   style="fill:#44678d;stroke-width:5.12983179"
   d="m 281.36514,281.684 c -7.87348,-4.60879 -18.81654,-4.60879 -27.70809,-4.60879 h -29.19683 v 60.49029 h 26.79744 c 9.91986,0 22.57166,0.71498 31.12556,-5.32376 7.85301,-5.31347 12.29879,-15.74496 12.29879,-25.67751 0,-9.22786 -5.46386,-20.26631 -13.31687,-24.88023 z m -11.01468,-51.65851 c 6.49728,-4.97399 9.90451,-13.84178 9.90451,-22.01003 0,-8.87294 -4.09789,-17.39096 -11.61325,-21.99974 -7.86324,-4.60878 -22.234,-3.54403 -31.46321,-3.54403 h -12.71829 v 53.23763 h 16.82642 c 9.57198,-0.005 20.86292,0.70469 29.06382,-5.68383 z M 414.12965,9.5394056 H 95.650349 C 47.97975,9.5394056 9.3286038,48.400305 9.3286038,96.33989 v 320.19734 c 0,47.92929 38.6511462,86.8005 86.3217452,86.8005 H 414.12965 c 47.6706,0 86.33195,-38.87121 86.33195,-86.8005 V 96.33989 c 0,-47.939585 -38.66135,-86.8004844 -86.33195,-86.8004844 z M 268.2171,382.64003 H 167.88271 V 139.16661 H 277.5077 c 31.75482,0 61.05397,20.32288 61.05397,56.16955 0,27.67843 -15.36837,46.63308 -34.97276,52.52265 v 0.71498 c 29.06893,6.03874 49.82953,21.9123 49.82953,60.20739 0,35.44031 -24.00412,73.85885 -85.20134,73.85885 z"
   id="path5300"
   inkscape:connector-curvature="0" />

</svg>