<?xml version="1.0" encoding="UTF-8" standalone="no"?>
<!-- Generator: Adobe Illustrator 16.0.0, SVG Export Plug-In . SVG Version: 6.00 Build 0)  -->

<svg
   xmlns:dc="http://purl.org/dc/elements/1.1/"
   xmlns:cc="http://creativecommons.org/ns#"
   xmlns:rdf="http://www.w3.org/1999/02/22-rdf-syntax-ns#"
   xmlns:svg="http://www.w3.org/2000/svg"
   xmlns="http://www.w3.org/2000/svg"
   xmlns:sodipodi="http://sodipodi.sourceforge.net/DTD/sodipodi-0.dtd"
   xmlns:inkscape="http://www.inkscape.org/namespaces/inkscape"
   version="1.1"
   id="Capa_1"
   x="0px"
   y="0px"
   width="512"
   height="512"
   viewBox="0 0 512 512"
   xml:space="preserve"
   sodipodi:docname="wrench.svg"
   inkscape:version="0.92.2 5c3e80d, 2017-08-06"><metadata
     id="metadata1142"><rdf:RDF><cc:Work
         rdf:about=""><dc:format>image/svg+xml</dc:format><dc:type
           rdf:resource="http://purl.org/dc/dcmitype/StillImage" /><dc:title></dc:title></cc:Work></rdf:RDF></metadata><defs
     id="defs1140" /><sodipodi:namedview
     pagecolor="#ffffff"
     bordercolor="#666666"
     borderopacity="1"
     objecttolerance="10"
     gridtolerance="10"
     guidetolerance="10"
     inkscape:pageopacity="0"
     inkscape:pageshadow="2"
     inkscape:window-width="1680"
     inkscape:window-height="1023"
     id="namedview1138"
     showgrid="false"
     inkscape:zoom="0.48986742"
     inkscape:cx="240.8815"
     inkscape:cy="240.8815"
     inkscape:window-x="0"
     inkscape:window-y="27"
     inkscape:window-maximized="1"
     inkscape:current-layer="Capa_1" /><g
     id="g1105"
     transform="matrix(1.0180856,0,0,1.0042373,20.139942,11.864682)"><path
       d="M 453.584,405.715 298.332,250.457 c -1.454,-1.46 -3.009,-2.755 -4.61,-3.967 l 27.497,-28.954 c 1.406,-1.416 2.736,-2.905 3.96,-4.436 36.505,13.77 79.34,6.029 108.682,-23.309 21.402,-21.409 32.195,-51.013 29.583,-81.226 -0.283,-3.419 -2.548,-6.375 -5.769,-7.542 -3.228,-1.179 -6.845,-0.375 -9.274,2.045 L 398.644,152.822 348.267,140.123 333.98,88.156 383.725,38.408 c 2.441,-2.433 3.239,-6.053 2.063,-9.277 -1.171,-3.233 -4.126,-5.479 -7.555,-5.78 -30.21,-2.604 -59.816,8.183 -81.226,29.592 -29.317,29.317 -37.078,72.129 -23.323,108.619 -1.496,1.265 -2.985,2.61 -4.445,4.049 l -40.471,38.869 -74.319,-74.312 c -0.928,-0.931 -1.918,-1.75 -2.938,-2.519 0.872,-1.53 1.72,-3.105 2.512,-4.74 15.696,3.021 44.39,-27.544 68.76,-51.905 L 151.787,0 C 120.04,31.752 96.858,53.061 99.867,68.757 92.609,72.303 86.139,76.639 81.541,81.243 L 71.54,91.241 c -6.493,6.502 -10.409,14.588 -11.807,23.014 -0.97,1.108 -1.957,2.275 -2.938,3.523 l -3.727,4.684 c -0.104,0.115 -0.425,0.576 -0.514,0.694 l -3.378,4.729 c -2.113,2.819 -3.96,5.881 -5.746,8.836 -0.659,1.097 -1.33,2.196 -2.015,3.292 -0.109,0.189 -0.216,0.375 -0.313,0.562 l -1.501,2.828 c -1.814,3.402 -3.697,6.924 -5.308,10.799 l -0.26,0.617 c -1.9,4.513 -3.869,9.186 -5.243,14.139 l -0.665,2.143 c -0.544,1.762 -1.097,3.52 -1.605,5.621 l -1.38,6.833 c -1.029,4.273 -1.375,8.488 -1.676,12.221 l -0.201,2.453 c -0.508,3.871 -0.36,7.521 -0.222,10.742 0.047,1.079 0.089,2.137 0.121,3.564 0.036,0.594 0.042,1.173 0.06,1.744 0.035,1.439 0.074,3.074 0.352,4.793 l 0.866,5.545 c 0.186,1.072 0.343,2.113 0.491,3.111 0.331,2.252 0.671,4.581 1.342,6.792 l 3.632,12.602 c 1.12,3.83 4.758,6.366 8.739,6.088 2.107,-0.147 4.001,-1.058 5.411,-2.471 1.259,-1.259 2.131,-2.914 2.397,-4.781 l 1.883,-12.812 c 0.139,-1.017 0.576,-2.506 1.028,-4.082 0.322,-1.093 0.635,-2.208 0.877,-3.159 l 1.339,-4.782 c 0.163,-0.647 0.479,-1.277 0.757,-1.924 0.266,-0.6 0.532,-1.218 0.769,-1.827 0.449,-1.017 0.872,-2.033 1.288,-3.076 0.825,-2.045 1.605,-3.969 2.796,-5.858 0.518,-0.872 0.999,-1.738 1.49,-2.622 1.241,-2.222 2.42,-4.32 3.821,-6.059 0.088,-0.103 0.168,-0.218 0.26,-0.34 l 3.159,-4.356 c 0.647,-0.819 1.374,-1.593 2.081,-2.373 0.502,-0.55 1.005,-1.103 1.64,-1.83 1.865,-2.243 4.055,-4.199 6.168,-6.124 l 1.132,-1.017 c 1.566,-1.454 3.378,-2.822 5.284,-4.268 0.78,-0.583 1.543,-1.162 2.293,-1.732 0.963,-0.624 1.895,-1.247 2.813,-1.865 1.72,-1.162 3.209,-2.167 4.93,-3.062 l 3.745,-2.131 3.789,-1.858 c 1.321,-0.683 2.622,-1.209 3.821,-1.693 0.712,-0.296 1.416,-0.583 2.069,-0.866 0.665,-0.23 1.306,-0.479 1.912,-0.703 0.812,-0.296 1.513,-0.58 2.465,-0.828 l 1.022,-0.23 c 1.114,1.803 2.42,3.517 3.987,5.083 l 73.515,73.518 -156.938,150.74 c -0.062,0.059 -0.121,0.124 -0.178,0.178 -19.529,19.529 -22.709,48.131 -3.177,67.666 19.532,19.529 46.316,14.522 65.84,-5 0.086,-0.083 0.16,-0.16 0.236,-0.249 L 232.816,310.635 c 0.812,0.957 1.616,1.92 2.518,2.824 l 155.24,155.253 c 17.396,17.401 45.613,17.401 63.009,0 17.391,-17.39 17.391,-45.608 10e-4,-62.997 z M 73.871,440.564 c -7.191,7.199 -18.855,7.199 -26.052,0 -7.19,-7.193 -7.19,-18.85 0,-26.043 7.19,-7.188 18.855,-7.193 26.052,0 7.184,7.194 7.184,18.85 0,26.043 z"
       id="path1103"
       inkscape:connector-curvature="0" /></g><path
     style="opacity:1;fill:#4d4d4d;fill-opacity:1;fill-rule:nonzero;stroke:none;stroke-width:65.32379913;stroke-miterlimit:4;stroke-dasharray:none;stroke-opacity:1"
     d="m 440.91346,493.30641 c -4.84003,-0.85229 -12.64826,-4.37522 -17.35164,-7.82877 -4.70335,-3.45353 -43.61122,-41.25749 -86.4619,-84.00881 -42.85067,-42.7513 -78.99111,-77.3694 -80.31208,-76.92908 -1.32096,0.44032 -35.1575,34.70825 -75.19232,76.15093 -79.26206,82.0494 -83.608584,85.6464 -103.492943,85.6464 -23.313808,0 -43.387693,-22.17227 -41.077024,-45.37091 0.619468,-6.21934 3.279133,-14.57101 6.260211,-19.65783 3.119042,-5.32224 37.7189,-39.63074 86.883166,-86.15155 44.93501,-42.51896 81.70567,-78.34141 81.71258,-79.60546 0.0167,-3.06156 -78.42302,-78.33579 -81.63006,-78.33579 -5.79546,0 -27.59832,13.74039 -37.475183,23.61725 -12.681527,12.68153 -20.399162,27.54119 -24.281908,46.75277 -4.272162,21.13839 -12.550551,23.71158 -18.754085,5.82937 -5.138962,-14.81347 -6.252791,-41.70074 -2.463922,-59.47779 3.807364,-17.86382 14.048148,-39.78382 26.409395,-56.52829 4.973092,-6.73651 9.674297,-14.89185 10.447122,-18.12297 1.700348,-7.10901 20.920751,-27.735732 30.804661,-33.058566 4.1156,-2.216398 7.13632,-5.40926 7.13632,-7.543006 0,-8.131768 9.75957,-21.839075 30.81754,-43.283193 l 22.1103,-22.515749 35.21827,35.151801 35.21828,35.151802 -6.0549,6.448678 c -11.54713,12.298093 -40.72938,36.966733 -48.29856,40.828243 -4.18398,2.1345 -9.38277,3.88091 -11.55288,3.88091 -9.76479,0 -4.54547,7.01921 33.42672,44.95394 l 39.4857,39.44675 20.04189,-18.493 c 29.24049,-26.98068 27.38903,-24.10195 23.96584,-37.26306 -16.3173,-62.73504 33.21498,-126.630325 98.16513,-126.630325 12.54382,0 17.33101,2.219726 17.33101,8.036038 0,1.725216 -11.90244,15.091077 -26.44989,29.701914 l -26.44989,26.565163 7.56723,26.41822 7.56723,26.41823 25.57631,6.40138 25.57633,6.40137 27.49926,-26.16064 c 15.1246,-14.38835 29.07454,-26.17167 30.99985,-26.18515 8.03577,-0.0563 9.93053,15.88813 4.58369,38.5715 -8.08606,34.30415 -33.84211,62.14574 -68.30464,73.83549 -16.04926,5.44392 -44.67776,6.06382 -59.68427,1.29237 l -9.67074,-3.0749 -16.24497,17.16171 -16.24499,17.1617 83.79414,83.16818 c 49.86178,49.48926 85.45,86.40664 87.88315,91.1654 5.89133,11.52226 4.49883,30.51436 -3.02737,41.28988 -10.54077,15.09162 -27.53831,22.02933 -46.00516,18.77745 z M 91.642389,457.80595 c 11.314851,-5.85113 13.302811,-20.40697 4.050692,-29.65909 -8.235528,-8.23553 -18.616321,-8.23553 -26.851849,0 -16.212257,16.21225 2.282499,40.26972 22.801157,29.65909 z"
     id="path6072"
     inkscape:connector-curvature="0" /></svg>