<svg xmlns="http://www.w3.org/2000/svg" viewBox="0 0 1200 1200">
	<path fill="#E5E5E5" d="M154,0C69,0,0,69,0,154v891c0,85,69,154,154,154h665 c19,0,44-13,55-31l314-529c12-21,12-56,0-77L875,31 C865,14,840,0,820,0H154z"/>
	<path fill="#FFFFFF" d="M173,25C91,25,25,91,25,172v854c0,81,66,147,148,147h638 c19,0,42-13,52-30l301-507c12-20,12-53,0-74L863,55 C854,38,830,25,811,25H173z"/>
	<circle fill="#383838" cx="626" cy="470" r="260"/>
	<path fill="#FFFFFF" d="M632,542c-9-19-18-42-25-70c21-8,42-13,62-13 c4,0,9,0,13,0c-8,23-21,48-42,73c-2,3-5,5-8,8V542z M529,571c-9-21,10-57,43-81c8,30,18,55,29,76 c-20,13-40,20-55,17c-8-1-13-5-17-13L529,571z M729,433 c3-17,4-31,5-40h-37c-0,7-1,17-3,30c-29-4-62-0-94,11 c-3-21-5-40-6-58c112-6,179-33,182-35l-14-34 c-0,0-63,26-169,32c-0-26,1-42,1-42h-37c-0,7-1,22-1,44 l-3,0c-33,0-64-2-72-3v38c11,0,37,3,68,3l9-0 c1,21,4,46,9,73c-49,29-89,88-69,135c8,19,24,32,46,35 c3,0,7,0,11,0c21,0,46-8,69-23c15,23,27,35,28,36 l25-27c-0-0-11-10-24-31c6-5,12-11,17-18 c24-29,40-60,50-87c8,4,16,12,21,23c15,37-6,81-26,100 l25,27c33-31,56-90,36-142c-8-20-23-36-45-46L729,433z"/>
	<circle fill="#FF0000" cx="366" cy="730" r="260"/>
	<path fill="#FFFFFF" d="M412,749h-93l46-119L412,749z M386,567h-40l-125,304h51 l30-81h126l30,81h51L386,567z"/>
</svg>